# Blender 4.5.3 LTS
# www.blender.org
mtllib sphere.mtl
o Sphere
v 0.000000 0.500000 -0.866025
v 0.000000 0.382683 -0.923880
v 0.000000 0.258819 -0.965926
v 0.000000 0.000000 -1.000000
v 0.000000 -0.258819 -0.965926
v 0.000000 -0.382683 -0.923880
v 0.000000 -0.500000 -0.866025
v 0.000000 -0.707107 -0.707107
v 0.033783 0.991445 -0.126079
v 0.066987 0.965926 -0.250000
v 0.099046 0.923880 -0.369644
v 0.129410 0.866025 -0.482963
v 0.157559 0.793353 -0.588018
v 0.183013 0.707107 -0.683013
v 0.205335 0.608761 -0.766320
v 0.224144 0.500000 -0.836516
v 0.239118 0.382683 -0.892399
v 0.250000 0.258819 -0.933013
v 0.256605 0.130526 -0.957662
v 0.258819 0.000000 -0.965926
v 0.256605 -0.130526 -0.957662
v 0.250000 -0.258819 -0.933013
v 0.239118 -0.382683 -0.892399
v 0.224144 -0.500000 -0.836516
v 0.205335 -0.608761 -0.766320
v 0.183013 -0.707107 -0.683013
v 0.157559 -0.793353 -0.588018
v 0.129410 -0.866025 -0.482963
v 0.099046 -0.923880 -0.369644
v 0.066987 -0.965926 -0.250000
v 0.033783 -0.991445 -0.126079
v 0.065263 0.991445 -0.113039
v 0.129410 0.965926 -0.224144
v 0.191342 0.923880 -0.331414
v 0.250000 0.866025 -0.433013
v 0.304381 0.793353 -0.527203
v 0.353553 0.707107 -0.612372
v 0.396677 0.608761 -0.687064
v 0.433013 0.500000 -0.750000
v 0.461940 0.382683 -0.800103
v 0.482963 0.258819 -0.836516
v 0.495722 0.130526 -0.858616
v 0.500000 0.000000 -0.866025
v 0.495722 -0.130526 -0.858616
v 0.482963 -0.258819 -0.836516
v 0.461940 -0.382683 -0.800103
v 0.433013 -0.500000 -0.750000
v 0.396677 -0.608761 -0.687064
v 0.353553 -0.707107 -0.612372
v 0.304381 -0.793353 -0.527203
v 0.250000 -0.866025 -0.433013
v 0.191342 -0.923880 -0.331414
v 0.129410 -0.965926 -0.224144
v 0.065263 -0.991445 -0.113039
v 0.092296 0.991445 -0.092296
v 0.183013 0.965926 -0.183013
v 0.270598 0.923880 -0.270598
v 0.353553 0.866025 -0.353553
v 0.430459 0.793353 -0.430459
v 0.500000 0.707107 -0.500000
v 0.560986 0.608761 -0.560986
v 0.612372 0.500000 -0.612372
v 0.653281 0.382683 -0.653281
v 0.683013 0.258819 -0.683013
v 0.701057 0.130526 -0.701057
v 0.707107 0.000000 -0.707107
v 0.701057 -0.130526 -0.701057
v 0.683013 -0.258819 -0.683013
v 0.653281 -0.382683 -0.653281
v 0.612372 -0.500000 -0.612372
v 0.560986 -0.608761 -0.560986
v 0.500000 -0.707107 -0.500000
v 0.430459 -0.793353 -0.430459
v 0.353553 -0.866025 -0.353553
v 0.270598 -0.923880 -0.270598
v 0.183013 -0.965926 -0.183013
v 0.092296 -0.991445 -0.092296
v 0.113039 0.991445 -0.065263
v 0.224144 0.965926 -0.129410
v 0.331414 0.923880 -0.191342
v 0.433013 0.866025 -0.250000
v 0.527203 0.793353 -0.304381
v 0.612372 0.707107 -0.353553
v 0.687064 0.608761 -0.396677
v 0.750000 0.500000 -0.433013
v 0.800103 0.382683 -0.461940
v 0.836516 0.258819 -0.482963
v 0.858616 0.130526 -0.495722
v 0.866025 0.000000 -0.500000
v 0.858616 -0.130526 -0.495722
v 0.836516 -0.258819 -0.482963
v 0.800103 -0.382683 -0.461940
v 0.750000 -0.500000 -0.433013
v 0.687064 -0.608761 -0.396677
v 0.612372 -0.707107 -0.353553
v 0.527203 -0.793353 -0.304381
v 0.433013 -0.866025 -0.250000
v 0.331414 -0.923880 -0.191342
v 0.224144 -0.965926 -0.129410
v 0.113039 -0.991445 -0.065263
v 0.126079 0.991445 -0.033783
v 0.250000 0.965926 -0.066987
v 0.369644 0.923880 -0.099046
v 0.482963 0.866025 -0.129409
v 0.588018 0.793353 -0.157559
v 0.683013 0.707107 -0.183013
v 0.766320 0.608761 -0.205335
v 0.836516 0.500000 -0.224144
v 0.892399 0.382683 -0.239118
v 0.933013 0.258819 -0.250000
v 0.957662 0.130526 -0.256605
v 0.965926 0.000000 -0.258819
v 0.957662 -0.130526 -0.256605
v 0.933013 -0.258819 -0.250000
v 0.892399 -0.382683 -0.239118
v 0.836516 -0.500000 -0.224144
v 0.766320 -0.608761 -0.205335
v 0.683013 -0.707107 -0.183013
v 0.588018 -0.793353 -0.157559
v 0.482963 -0.866025 -0.129409
v 0.369644 -0.923880 -0.099046
v 0.250000 -0.965926 -0.066987
v 0.126079 -0.991445 -0.033783
v 0.130526 0.991445 0.000000
v 0.258819 0.965926 0.000000
v 0.382683 0.923880 0.000000
v 0.500000 0.866025 0.000000
v 0.608761 0.793353 0.000000
v 0.707107 0.707107 -0.000000
v 0.793353 0.608761 -0.000000
v 0.866025 0.500000 0.000000
v 0.923879 0.382683 0.000000
v 0.965926 0.258819 0.000000
v 0.991445 0.130526 0.000000
v 1.000000 0.000000 0.000000
v 0.991445 -0.130526 0.000000
v 0.965926 -0.258819 0.000000
v 0.923879 -0.382683 0.000000
v 0.866025 -0.500000 0.000000
v 0.793353 -0.608761 -0.000000
v 0.707107 -0.707107 -0.000000
v 0.608761 -0.793353 0.000000
v 0.500000 -0.866025 0.000000
v 0.382683 -0.923880 0.000000
v 0.258819 -0.965926 0.000000
v 0.130526 -0.991445 0.000000
v 0.126079 0.991445 0.033783
v 0.250000 0.965926 0.066987
v 0.369644 0.923880 0.099046
v 0.482963 0.866025 0.129410
v 0.588018 0.793353 0.157559
v 0.683013 0.707107 0.183013
v 0.766321 0.608761 0.205335
v 0.836516 0.500000 0.224144
v 0.892399 0.382683 0.239118
v 0.933013 0.258819 0.250000
v 0.957662 0.130526 0.256605
v 0.965926 0.000000 0.258819
v 0.957662 -0.130526 0.256605
v 0.933013 -0.258819 0.250000
v 0.892399 -0.382683 0.239118
v 0.836516 -0.500000 0.224144
v 0.766321 -0.608761 0.205335
v 0.683013 -0.707107 0.183013
v 0.588018 -0.793353 0.157559
v 0.482963 -0.866025 0.129410
v 0.369644 -0.923880 0.099046
v 0.250000 -0.965926 0.066987
v 0.126079 -0.991445 0.033783
v 0.113039 0.991445 0.065263
v 0.224144 0.965926 0.129410
v 0.331414 0.923880 0.191342
v 0.433013 0.866025 0.250000
v 0.527203 0.793353 0.304381
v 0.612372 0.707107 0.353553
v 0.687064 0.608761 0.396677
v 0.750000 0.500000 0.433013
v 0.800103 0.382683 0.461940
v 0.836516 0.258819 0.482963
v 0.858616 0.130526 0.495722
v 0.866025 0.000000 0.500000
v 0.858616 -0.130526 0.495722
v 0.836516 -0.258819 0.482963
v 0.800103 -0.382683 0.461940
v 0.750000 -0.500000 0.433013
v 0.687064 -0.608761 0.396677
v 0.612372 -0.707107 0.353553
v 0.527203 -0.793353 0.304381
v 0.433013 -0.866025 0.250000
v 0.331414 -0.923880 0.191342
v 0.224144 -0.965926 0.129410
v 0.113039 -0.991445 0.065263
v 0.092296 0.991445 0.092296
v 0.183013 0.965926 0.183013
v 0.270598 0.923880 0.270598
v 0.353553 0.866025 0.353553
v 0.430459 0.793353 0.430459
v 0.500000 0.707107 0.500000
v 0.560986 0.608761 0.560986
v 0.612372 0.500000 0.612372
v 0.653281 0.382683 0.653281
v 0.683013 0.258819 0.683013
v 0.701057 0.130526 0.701057
v 0.707107 0.000000 0.707107
v 0.701057 -0.130526 0.701057
v 0.683013 -0.258819 0.683013
v 0.653281 -0.382683 0.653281
v 0.612372 -0.500000 0.612372
v 0.560986 -0.608761 0.560986
v 0.500000 -0.707107 0.500000
v 0.430459 -0.793353 0.430459
v 0.353553 -0.866025 0.353553
v 0.270598 -0.923880 0.270598
v 0.183013 -0.965926 0.183013
v 0.092296 -0.991445 0.092296
v 0.065263 0.991445 0.113039
v 0.129410 0.965926 0.224144
v 0.191342 0.923880 0.331414
v 0.250000 0.866025 0.433013
v 0.304381 0.793353 0.527203
v 0.353553 0.707107 0.612372
v 0.396677 0.608761 0.687064
v 0.433013 0.500000 0.750000
v 0.461940 0.382683 0.800103
v 0.482963 0.258819 0.836516
v 0.495722 0.130526 0.858616
v 0.500000 0.000000 0.866025
v 0.495722 -0.130526 0.858616
v 0.482963 -0.258819 0.836516
v 0.461940 -0.382683 0.800103
v 0.433013 -0.500000 0.750000
v 0.396677 -0.608761 0.687064
v 0.353553 -0.707107 0.612372
v 0.304381 -0.793353 0.527203
v 0.250000 -0.866025 0.433013
v 0.191342 -0.923880 0.331414
v 0.129410 -0.965926 0.224144
v 0.065263 -0.991445 0.113039
v 0.033783 0.991445 0.126079
v 0.066987 0.965926 0.250000
v 0.099046 0.923880 0.369644
v 0.129409 0.866025 0.482963
v 0.157559 0.793353 0.588018
v 0.183013 0.707107 0.683012
v 0.205335 0.608761 0.766321
v 0.224144 0.500000 0.836516
v 0.239117 0.382683 0.892399
v 0.250000 0.258819 0.933013
v 0.256605 0.130526 0.957662
v 0.258819 0.000000 0.965926
v 0.256605 -0.130526 0.957662
v 0.250000 -0.258819 0.933013
v 0.239117 -0.382683 0.892399
v 0.224144 -0.500000 0.836516
v 0.205335 -0.608761 0.766321
v 0.183013 -0.707107 0.683012
v 0.157559 -0.793353 0.588018
v 0.129409 -0.866025 0.482963
v 0.099046 -0.923880 0.369644
v 0.066987 -0.965926 0.250000
v 0.033783 -0.991445 0.126079
v 0.000000 0.991445 0.130526
v 0.000000 0.965926 0.258819
v -0.000000 0.923880 0.382683
v -0.000000 0.866025 0.500000
v 0.000000 0.793353 0.608761
v 0.000000 0.707107 0.707106
v 0.000000 0.608761 0.793353
v -0.000000 0.500000 0.866025
v -0.000000 0.382683 0.923879
v -0.000000 0.258819 0.965926
v 0.000000 0.130526 0.991445
v -0.000000 0.000000 1.000000
v 0.000000 -0.130526 0.991445
v -0.000000 -0.258819 0.965926
v -0.000000 -0.382683 0.923879
v -0.000000 -0.500000 0.866025
v 0.000000 -0.608761 0.793353
v 0.000000 -0.707107 0.707106
v 0.000000 -0.793353 0.608761
v -0.000000 -0.866025 0.500000
v -0.000000 -0.923880 0.382683
v 0.000000 -0.965926 0.258819
v 0.000000 -0.991445 0.130526
v 0.000000 1.000000 0.000000
v -0.033783 0.991445 0.126079
v -0.066987 0.965926 0.250000
v -0.099046 0.923880 0.369644
v -0.129410 0.866025 0.482963
v -0.157559 0.793353 0.588018
v -0.183013 0.707107 0.683012
v -0.205335 0.608761 0.766321
v -0.224144 0.500000 0.836516
v -0.239118 0.382683 0.892399
v -0.250000 0.258819 0.933013
v -0.256605 0.130526 0.957662
v -0.258819 0.000000 0.965926
v -0.256605 -0.130526 0.957662
v -0.250000 -0.258819 0.933013
v -0.239118 -0.382683 0.892399
v -0.224144 -0.500000 0.836516
v -0.205335 -0.608761 0.766321
v -0.183013 -0.707107 0.683012
v -0.157559 -0.793353 0.588018
v -0.129410 -0.866025 0.482963
v -0.099046 -0.923880 0.369644
v -0.066987 -0.965926 0.250000
v -0.033783 -0.991445 0.126079
v -0.065263 0.991445 0.113039
v -0.129410 0.965926 0.224144
v -0.191342 0.923880 0.331414
v -0.250000 0.866025 0.433013
v -0.304381 0.793353 0.527203
v -0.353553 0.707107 0.612372
v -0.396677 0.608761 0.687064
v -0.433013 0.500000 0.750000
v -0.461940 0.382683 0.800103
v -0.482963 0.258819 0.836516
v -0.495722 0.130526 0.858616
v -0.500000 0.000000 0.866025
v -0.495722 -0.130526 0.858616
v -0.482963 -0.258819 0.836516
v -0.461940 -0.382683 0.800103
v -0.433013 -0.500000 0.750000
v -0.396677 -0.608761 0.687064
v -0.353553 -0.707107 0.612372
v -0.304381 -0.793353 0.527203
v -0.250000 -0.866025 0.433013
v -0.191342 -0.923880 0.331414
v -0.129410 -0.965926 0.224144
v -0.065263 -0.991445 0.113039
v -0.092296 0.991445 0.092296
v -0.183013 0.965926 0.183013
v -0.270598 0.923880 0.270598
v -0.353553 0.866025 0.353553
v -0.430459 0.793353 0.430459
v -0.500000 0.707107 0.500000
v -0.560986 0.608761 0.560986
v -0.612372 0.500000 0.612372
v -0.653281 0.382683 0.653281
v -0.683013 0.258819 0.683013
v -0.701057 0.130526 0.701057
v -0.707107 0.000000 0.707106
v -0.701057 -0.130526 0.701057
v -0.683013 -0.258819 0.683013
v -0.653281 -0.382683 0.653281
v -0.612372 -0.500000 0.612372
v -0.560986 -0.608761 0.560986
v -0.500000 -0.707107 0.500000
v -0.430459 -0.793353 0.430459
v -0.353553 -0.866025 0.353553
v -0.270598 -0.923880 0.270598
v -0.183013 -0.965926 0.183013
v -0.092296 -0.991445 0.092296
v -0.113039 0.991445 0.065263
v -0.224144 0.965926 0.129410
v -0.331414 0.923880 0.191342
v -0.433013 0.866025 0.250000
v -0.527203 0.793353 0.304381
v -0.612372 0.707107 0.353553
v -0.687064 0.608761 0.396677
v -0.750000 0.500000 0.433013
v -0.800103 0.382683 0.461940
v -0.836516 0.258819 0.482963
v -0.858616 0.130526 0.495722
v -0.866025 0.000000 0.500000
v -0.858616 -0.130526 0.495722
v -0.836516 -0.258819 0.482963
v -0.800103 -0.382683 0.461940
v -0.750000 -0.500000 0.433013
v -0.687064 -0.608761 0.396677
v -0.612372 -0.707107 0.353553
v -0.527203 -0.793353 0.304381
v -0.433013 -0.866025 0.250000
v -0.331414 -0.923880 0.191342
v -0.224144 -0.965926 0.129410
v -0.113039 -0.991445 0.065263
v 0.000000 -1.000000 0.000000
v -0.126079 0.991445 0.033783
v -0.250000 0.965926 0.066987
v -0.369644 0.923880 0.099046
v -0.482963 0.866025 0.129409
v -0.588018 0.793353 0.157559
v -0.683012 0.707107 0.183013
v -0.766321 0.608761 0.205335
v -0.836516 0.500000 0.224144
v -0.892399 0.382683 0.239117
v -0.933013 0.258819 0.250000
v -0.957662 0.130526 0.256605
v -0.965925 0.000000 0.258819
v -0.957662 -0.130526 0.256605
v -0.933013 -0.258819 0.250000
v -0.892399 -0.382683 0.239117
v -0.836516 -0.500000 0.224144
v -0.766321 -0.608761 0.205335
v -0.683012 -0.707107 0.183013
v -0.588018 -0.793353 0.157559
v -0.482963 -0.866025 0.129409
v -0.369644 -0.923880 0.099046
v -0.250000 -0.965926 0.066987
v -0.126079 -0.991445 0.033783
v -0.130526 0.991445 0.000000
v -0.258819 0.965926 0.000000
v -0.382683 0.923880 -0.000000
v -0.500000 0.866025 -0.000000
v -0.608761 0.793353 0.000000
v -0.707106 0.707107 0.000000
v -0.793353 0.608761 0.000000
v -0.866025 0.500000 -0.000000
v -0.923879 0.382683 -0.000000
v -0.965926 0.258819 -0.000000
v -0.991445 0.130526 0.000000
v -0.999999 0.000000 -0.000000
v -0.991445 -0.130526 0.000000
v -0.965926 -0.258819 -0.000000
v -0.923879 -0.382683 -0.000000
v -0.866025 -0.500000 -0.000000
v -0.793353 -0.608761 0.000000
v -0.707106 -0.707107 0.000000
v -0.608761 -0.793353 0.000000
v -0.500000 -0.866025 -0.000000
v -0.382683 -0.923880 -0.000000
v -0.258819 -0.965926 0.000000
v -0.130526 -0.991445 0.000000
v -0.126079 0.991445 -0.033783
v -0.250000 0.965926 -0.066987
v -0.369644 0.923880 -0.099046
v -0.482963 0.866025 -0.129410
v -0.588018 0.793353 -0.157559
v -0.683012 0.707107 -0.183013
v -0.766321 0.608761 -0.205335
v -0.836516 0.500000 -0.224144
v -0.892399 0.382683 -0.239118
v -0.933013 0.258819 -0.250000
v -0.957662 0.130526 -0.256605
v -0.965925 0.000000 -0.258819
v -0.957662 -0.130526 -0.256605
v -0.933013 -0.258819 -0.250000
v -0.892399 -0.382683 -0.239118
v -0.836516 -0.500000 -0.224144
v -0.766321 -0.608761 -0.205335
v -0.683012 -0.707107 -0.183013
v -0.588018 -0.793353 -0.157559
v -0.482963 -0.866025 -0.129410
v -0.369644 -0.923880 -0.099046
v -0.250000 -0.965926 -0.066987
v -0.126079 -0.991445 -0.033783
v -0.113039 0.991445 -0.065263
v -0.224144 0.965926 -0.129410
v -0.331414 0.923880 -0.191342
v -0.433012 0.866025 -0.250000
v -0.527203 0.793353 -0.304381
v -0.612372 0.707107 -0.353553
v -0.687064 0.608761 -0.396677
v -0.750000 0.500000 -0.433013
v -0.800103 0.382683 -0.461940
v -0.836516 0.258819 -0.482963
v -0.858616 0.130526 -0.495722
v -0.866025 0.000000 -0.500000
v -0.858616 -0.130526 -0.495722
v -0.836516 -0.258819 -0.482963
v -0.800103 -0.382683 -0.461940
v -0.750000 -0.500000 -0.433013
v -0.687064 -0.608761 -0.396677
v -0.612372 -0.707107 -0.353553
v -0.527203 -0.793353 -0.304381
v -0.433012 -0.866025 -0.250000
v -0.331414 -0.923880 -0.191342
v -0.224144 -0.965926 -0.129410
v -0.113039 -0.991445 -0.065263
v -0.092296 0.991445 -0.092296
v -0.183013 0.965926 -0.183013
v -0.270598 0.923880 -0.270598
v -0.353553 0.866025 -0.353553
v -0.430459 0.793353 -0.430459
v -0.500000 0.707107 -0.500000
v -0.560986 0.608761 -0.560986
v -0.612372 0.500000 -0.612372
v -0.653281 0.382683 -0.653281
v -0.683013 0.258819 -0.683013
v -0.701057 0.130526 -0.701057
v -0.707106 0.000000 -0.707106
v -0.701057 -0.130526 -0.701057
v -0.683013 -0.258819 -0.683013
v -0.653281 -0.382683 -0.653281
v -0.612372 -0.500000 -0.612372
v -0.560986 -0.608761 -0.560986
v -0.500000 -0.707107 -0.500000
v -0.430459 -0.793353 -0.430459
v -0.353553 -0.866025 -0.353553
v -0.270598 -0.923880 -0.270598
v -0.183013 -0.965926 -0.183013
v -0.092296 -0.991445 -0.092296
v -0.065263 0.991445 -0.113039
v -0.129410 0.965926 -0.224144
v -0.191342 0.923880 -0.331414
v -0.250000 0.866025 -0.433012
v -0.304381 0.793353 -0.527203
v -0.353553 0.707107 -0.612372
v -0.396677 0.608761 -0.687064
v -0.433012 0.500000 -0.750000
v -0.461939 0.382683 -0.800103
v -0.482963 0.258819 -0.836516
v -0.495722 0.130526 -0.858616
v -0.500000 0.000000 -0.866025
v -0.495722 -0.130526 -0.858616
v -0.482963 -0.258819 -0.836516
v -0.461939 -0.382683 -0.800103
v -0.433012 -0.500000 -0.750000
v -0.396677 -0.608761 -0.687064
v -0.353553 -0.707107 -0.612372
v -0.304381 -0.793353 -0.527203
v -0.250000 -0.866025 -0.433012
v -0.191342 -0.923880 -0.331414
v -0.129410 -0.965926 -0.224144
v -0.065263 -0.991445 -0.113039
v -0.033783 0.991445 -0.126079
v -0.066987 0.965926 -0.250000
v -0.099046 0.923880 -0.369644
v -0.129409 0.866025 -0.482963
v -0.157559 0.793353 -0.588018
v -0.183013 0.707107 -0.683012
v -0.205335 0.608761 -0.766321
v -0.224144 0.500000 -0.836516
v -0.239117 0.382683 -0.892399
v -0.250000 0.258819 -0.933013
v -0.256605 0.130526 -0.957662
v -0.258819 0.000000 -0.965925
v -0.256605 -0.130526 -0.957662
v -0.250000 -0.258819 -0.933013
v -0.239117 -0.382683 -0.892399
v -0.224144 -0.500000 -0.836516
v -0.205335 -0.608761 -0.766321
v -0.183013 -0.707107 -0.683012
v -0.157559 -0.793353 -0.588018
v -0.129409 -0.866025 -0.482963
v -0.099046 -0.923880 -0.369644
v -0.066987 -0.965926 -0.250000
v -0.033783 -0.991445 -0.126079
v 0.000000 0.991445 -0.130526
v 0.000000 0.965926 -0.258819
v 0.000000 0.923880 -0.382683
v 0.000000 0.866025 -0.500000
v 0.000000 0.793353 -0.608761
v 0.000000 0.707107 -0.707106
v -0.000000 0.608761 -0.793353
v 0.000000 0.130526 -0.991445
v 0.000000 -0.130526 -0.991445
v -0.000000 -0.608761 -0.793353
v 0.000000 -0.793353 -0.608761
v 0.000000 -0.866025 -0.500000
v 0.000000 -0.923880 -0.382683
v 0.000000 -0.965926 -0.258819
v 0.000000 -0.991445 -0.130526
vn -0.0000 0.4977 -0.8674
vn -0.0000 0.3808 -0.9247
vn -0.0000 0.2575 -0.9663
vn -0.0000 -0.0000 -1.0000
vn -0.0000 -0.2575 -0.9663
vn -0.0000 -0.3808 -0.9247
vn -0.0000 -0.4977 -0.8674
vn -0.0000 -0.7044 -0.7098
vn 0.0352 0.9907 -0.1312
vn 0.0683 0.9646 -0.2549
vn 0.1002 0.9219 -0.3741
vn 0.1305 0.8637 -0.4869
vn 0.1584 0.7907 -0.5913
vn 0.1837 0.7044 -0.6856
vn 0.2059 0.6061 -0.7683
vn 0.2245 0.4977 -0.8378
vn 0.2393 0.3808 -0.8932
vn 0.2501 0.2575 -0.9334
vn 0.2566 0.1298 -0.9578
vn 0.2588 -0.0000 -0.9659
vn 0.2566 -0.1298 -0.9578
vn 0.2501 -0.2575 -0.9334
vn 0.2393 -0.3808 -0.8932
vn 0.2245 -0.4977 -0.8378
vn 0.2059 -0.6061 -0.7683
vn 0.1837 -0.7044 -0.6856
vn 0.1584 -0.7907 -0.5913
vn 0.1305 -0.8637 -0.4869
vn 0.1002 -0.9219 -0.3741
vn 0.0683 -0.9646 -0.2549
vn 0.0352 -0.9907 -0.1312
vn 0.0679 0.9907 -0.1177
vn 0.1319 0.9646 -0.2285
vn 0.1937 0.9219 -0.3354
vn 0.2520 0.8637 -0.4365
vn 0.3061 0.7907 -0.5301
vn 0.3549 0.7044 -0.6147
vn 0.3977 0.6061 -0.6888
vn 0.4337 0.4977 -0.7512
vn 0.4623 0.3808 -0.8008
vn 0.4831 0.2575 -0.8368
vn 0.4958 0.1298 -0.8587
vn 0.5000 -0.0000 -0.8660
vn 0.4958 -0.1298 -0.8587
vn 0.4831 -0.2575 -0.8368
vn 0.4623 -0.3808 -0.8008
vn 0.4337 -0.4977 -0.7512
vn 0.3977 -0.6061 -0.6888
vn 0.3549 -0.7044 -0.6147
vn 0.3061 -0.7907 -0.5302
vn 0.2520 -0.8637 -0.4365
vn 0.1937 -0.9219 -0.3354
vn 0.1319 -0.9646 -0.2285
vn 0.0679 -0.9907 -0.1177
vn 0.0961 0.9907 -0.0961
vn 0.1866 0.9646 -0.1866
vn 0.2739 0.9219 -0.2739
vn 0.3564 0.8637 -0.3564
vn 0.4329 0.7907 -0.4329
vn 0.5019 0.7044 -0.5019
vn 0.5624 0.6061 -0.5624
vn 0.6133 0.4977 -0.6133
vn 0.6538 0.3808 -0.6538
vn 0.6833 0.2575 -0.6833
vn 0.7011 0.1298 -0.7011
vn 0.7071 -0.0000 -0.7071
vn 0.7011 -0.1298 -0.7011
vn 0.6833 -0.2575 -0.6833
vn 0.6538 -0.3808 -0.6538
vn 0.6133 -0.4977 -0.6133
vn 0.5624 -0.6061 -0.5624
vn 0.5019 -0.7044 -0.5019
vn 0.4329 -0.7907 -0.4329
vn 0.3564 -0.8637 -0.3564
vn 0.2739 -0.9219 -0.2739
vn 0.1866 -0.9646 -0.1866
vn 0.0961 -0.9907 -0.0961
vn 0.1177 0.9907 -0.0679
vn 0.2285 0.9646 -0.1319
vn 0.3354 0.9219 -0.1937
vn 0.4365 0.8637 -0.2520
vn 0.5302 0.7907 -0.3061
vn 0.6147 0.7044 -0.3549
vn 0.6888 0.6061 -0.3977
vn 0.7512 0.4977 -0.4337
vn 0.8008 0.3808 -0.4623
vn 0.8368 0.2575 -0.4831
vn 0.8587 0.1298 -0.4958
vn 0.8660 -0.0000 -0.5000
vn 0.8587 -0.1298 -0.4958
vn 0.8368 -0.2575 -0.4831
vn 0.8008 -0.3808 -0.4623
vn 0.7512 -0.4977 -0.4337
vn 0.6888 -0.6061 -0.3977
vn 0.6147 -0.7044 -0.3549
vn 0.5302 -0.7907 -0.3061
vn 0.4365 -0.8637 -0.2520
vn 0.3354 -0.9219 -0.1937
vn 0.2285 -0.9646 -0.1319
vn 0.1177 -0.9907 -0.0679
vn 0.1312 0.9907 -0.0352
vn 0.2549 0.9646 -0.0683
vn 0.3741 0.9219 -0.1002
vn 0.4869 0.8637 -0.1305
vn 0.5913 0.7907 -0.1584
vn 0.6856 0.7044 -0.1837
vn 0.7683 0.6061 -0.2059
vn 0.8378 0.4977 -0.2245
vn 0.8932 0.3808 -0.2393
vn 0.9334 0.2575 -0.2501
vn 0.9578 0.1298 -0.2566
vn 0.9659 -0.0000 -0.2588
vn 0.9578 -0.1298 -0.2566
vn 0.9334 -0.2575 -0.2501
vn 0.8932 -0.3808 -0.2393
vn 0.8378 -0.4977 -0.2245
vn 0.7683 -0.6061 -0.2059
vn 0.6856 -0.7044 -0.1837
vn 0.5913 -0.7907 -0.1584
vn 0.4869 -0.8637 -0.1305
vn 0.3741 -0.9219 -0.1002
vn 0.2549 -0.9646 -0.0683
vn 0.1312 -0.9907 -0.0352
vn 0.1359 0.9907 -0.0000
vn 0.2639 0.9646 -0.0000
vn 0.3873 0.9219 -0.0000
vn 0.5041 0.8637 -0.0000
vn 0.6122 0.7907 -0.0000
vn 0.7098 0.7044 -0.0000
vn 0.7954 0.6061 -0.0000
vn 0.8674 0.4977 -0.0000
vn 0.9247 0.3808 -0.0000
vn 0.9663 0.2575 -0.0000
vn 0.9915 0.1298 -0.0000
vn 1.0000 -0.0000 -0.0000
vn 0.9915 -0.1298 -0.0000
vn 0.9663 -0.2575 -0.0000
vn 0.9247 -0.3808 -0.0000
vn 0.8674 -0.4977 -0.0000
vn 0.7954 -0.6061 -0.0000
vn 0.7098 -0.7044 -0.0000
vn 0.6122 -0.7907 -0.0000
vn 0.5041 -0.8637 -0.0000
vn 0.3873 -0.9219 -0.0000
vn 0.2639 -0.9646 -0.0000
vn 0.1359 -0.9907 -0.0000
vn 0.1312 0.9907 0.0352
vn 0.2549 0.9646 0.0683
vn 0.3741 0.9219 0.1002
vn 0.4869 0.8637 0.1305
vn 0.5913 0.7907 0.1584
vn 0.6856 0.7044 0.1837
vn 0.7683 0.6061 0.2059
vn 0.8378 0.4977 0.2245
vn 0.8932 0.3808 0.2393
vn 0.9334 0.2575 0.2501
vn 0.9578 0.1298 0.2566
vn 0.9659 -0.0000 0.2588
vn 0.9578 -0.1298 0.2566
vn 0.9334 -0.2575 0.2501
vn 0.8932 -0.3808 0.2393
vn 0.8378 -0.4977 0.2245
vn 0.7683 -0.6061 0.2059
vn 0.6856 -0.7044 0.1837
vn 0.5913 -0.7907 0.1584
vn 0.4869 -0.8637 0.1305
vn 0.3741 -0.9219 0.1002
vn 0.2549 -0.9646 0.0683
vn 0.1312 -0.9907 0.0352
vn 0.1177 0.9907 0.0679
vn 0.2285 0.9646 0.1319
vn 0.3354 0.9219 0.1937
vn 0.4365 0.8637 0.2520
vn 0.5302 0.7907 0.3061
vn 0.6147 0.7044 0.3549
vn 0.6888 0.6061 0.3977
vn 0.7512 0.4977 0.4337
vn 0.8008 0.3808 0.4623
vn 0.8368 0.2575 0.4831
vn 0.8587 0.1298 0.4958
vn 0.8660 -0.0000 0.5000
vn 0.8587 -0.1298 0.4958
vn 0.8368 -0.2575 0.4831
vn 0.8008 -0.3808 0.4623
vn 0.7512 -0.4977 0.4337
vn 0.6888 -0.6061 0.3977
vn 0.6147 -0.7044 0.3549
vn 0.5302 -0.7907 0.3061
vn 0.4365 -0.8637 0.2520
vn 0.3354 -0.9219 0.1937
vn 0.2285 -0.9646 0.1319
vn 0.1177 -0.9907 0.0679
vn 0.0961 0.9907 0.0961
vn 0.1866 0.9646 0.1866
vn 0.2739 0.9219 0.2739
vn 0.3564 0.8637 0.3564
vn 0.4329 0.7907 0.4329
vn 0.5019 0.7044 0.5019
vn 0.5624 0.6061 0.5624
vn 0.6133 0.4977 0.6133
vn 0.6538 0.3808 0.6538
vn 0.6833 0.2575 0.6833
vn 0.7011 0.1298 0.7011
vn 0.7071 -0.0000 0.7071
vn 0.7011 -0.1298 0.7011
vn 0.6833 -0.2575 0.6833
vn 0.6538 -0.3808 0.6538
vn 0.6133 -0.4977 0.6133
vn 0.5624 -0.6061 0.5624
vn 0.5019 -0.7044 0.5019
vn 0.4329 -0.7907 0.4329
vn 0.3564 -0.8637 0.3564
vn 0.2739 -0.9219 0.2739
vn 0.1866 -0.9646 0.1866
vn 0.0961 -0.9907 0.0961
vn 0.0679 0.9907 0.1177
vn 0.1319 0.9646 0.2285
vn 0.1937 0.9219 0.3354
vn 0.2520 0.8637 0.4365
vn 0.3061 0.7907 0.5302
vn 0.3549 0.7044 0.6147
vn 0.3977 0.6061 0.6888
vn 0.4337 0.4977 0.7512
vn 0.4623 0.3808 0.8008
vn 0.4831 0.2575 0.8368
vn 0.4958 0.1298 0.8587
vn 0.5000 -0.0000 0.8660
vn 0.4958 -0.1298 0.8587
vn 0.4831 -0.2575 0.8368
vn 0.4623 -0.3808 0.8008
vn 0.4337 -0.4977 0.7512
vn 0.3977 -0.6061 0.6888
vn 0.3549 -0.7044 0.6147
vn 0.3061 -0.7907 0.5302
vn 0.2520 -0.8637 0.4365
vn 0.1937 -0.9219 0.3354
vn 0.1319 -0.9646 0.2285
vn 0.0679 -0.9907 0.1177
vn 0.0352 0.9907 0.1312
vn 0.0683 0.9646 0.2549
vn 0.1002 0.9219 0.3741
vn 0.1305 0.8637 0.4869
vn 0.1584 0.7907 0.5913
vn 0.1837 0.7044 0.6856
vn 0.2059 0.6061 0.7683
vn 0.2245 0.4977 0.8378
vn 0.2393 0.3808 0.8932
vn 0.2501 0.2575 0.9334
vn 0.2566 0.1298 0.9578
vn 0.2588 -0.0000 0.9659
vn 0.2566 -0.1298 0.9578
vn 0.2501 -0.2575 0.9334
vn 0.2393 -0.3808 0.8932
vn 0.2245 -0.4977 0.8378
vn 0.2059 -0.6061 0.7683
vn 0.1837 -0.7044 0.6856
vn 0.1584 -0.7907 0.5913
vn 0.1305 -0.8637 0.4869
vn 0.1002 -0.9219 0.3741
vn 0.0683 -0.9646 0.2549
vn 0.0352 -0.9907 0.1312
vn -0.0000 0.9907 0.1359
vn -0.0000 0.9646 0.2639
vn -0.0000 0.9219 0.3873
vn -0.0000 0.8637 0.5041
vn -0.0000 0.7907 0.6122
vn -0.0000 0.7044 0.7098
vn -0.0000 0.6061 0.7954
vn -0.0000 0.4977 0.8674
vn -0.0000 0.3808 0.9247
vn -0.0000 0.2575 0.9663
vn -0.0000 0.1298 0.9915
vn -0.0000 -0.0000 1.0000
vn -0.0000 -0.1298 0.9915
vn -0.0000 -0.2575 0.9663
vn -0.0000 -0.3808 0.9247
vn -0.0000 -0.4977 0.8674
vn -0.0000 -0.6061 0.7954
vn -0.0000 -0.7044 0.7098
vn -0.0000 -0.7907 0.6122
vn -0.0000 -0.8637 0.5041
vn -0.0000 -0.9219 0.3873
vn -0.0000 -0.9646 0.2639
vn -0.0000 -0.9907 0.1359
vn -0.0000 1.0000 -0.0000
vn -0.0352 0.9907 0.1312
vn -0.0683 0.9646 0.2549
vn -0.1002 0.9219 0.3741
vn -0.1305 0.8637 0.4869
vn -0.1584 0.7907 0.5913
vn -0.1837 0.7044 0.6856
vn -0.2059 0.6061 0.7683
vn -0.2245 0.4977 0.8378
vn -0.2393 0.3808 0.8932
vn -0.2501 0.2575 0.9334
vn -0.2566 0.1298 0.9578
vn -0.2588 -0.0000 0.9659
vn -0.2566 -0.1298 0.9578
vn -0.2501 -0.2575 0.9334
vn -0.2393 -0.3808 0.8932
vn -0.2245 -0.4977 0.8378
vn -0.2059 -0.6061 0.7683
vn -0.1837 -0.7044 0.6856
vn -0.1584 -0.7907 0.5913
vn -0.1305 -0.8637 0.4869
vn -0.1002 -0.9219 0.3741
vn -0.0683 -0.9646 0.2549
vn -0.0352 -0.9907 0.1312
vn -0.0679 0.9907 0.1177
vn -0.1319 0.9646 0.2285
vn -0.1937 0.9219 0.3354
vn -0.2520 0.8637 0.4365
vn -0.3061 0.7907 0.5302
vn -0.3549 0.7044 0.6147
vn -0.3977 0.6061 0.6888
vn -0.4337 0.4977 0.7512
vn -0.4623 0.3808 0.8008
vn -0.4831 0.2575 0.8368
vn -0.4958 0.1298 0.8587
vn -0.5000 -0.0000 0.8660
vn -0.4958 -0.1298 0.8587
vn -0.4831 -0.2575 0.8368
vn -0.4623 -0.3808 0.8008
vn -0.4337 -0.4977 0.7512
vn -0.3977 -0.6061 0.6888
vn -0.3549 -0.7044 0.6147
vn -0.3061 -0.7907 0.5302
vn -0.2520 -0.8637 0.4365
vn -0.1937 -0.9219 0.3354
vn -0.1319 -0.9646 0.2285
vn -0.0679 -0.9907 0.1177
vn -0.0961 0.9907 0.0961
vn -0.1866 0.9646 0.1866
vn -0.2739 0.9219 0.2739
vn -0.3564 0.8637 0.3564
vn -0.4329 0.7907 0.4329
vn -0.5019 0.7044 0.5019
vn -0.5624 0.6061 0.5624
vn -0.6133 0.4977 0.6133
vn -0.6538 0.3808 0.6538
vn -0.6833 0.2575 0.6833
vn -0.7011 0.1298 0.7011
vn -0.7071 -0.0000 0.7071
vn -0.7011 -0.1298 0.7011
vn -0.6833 -0.2575 0.6833
vn -0.6538 -0.3808 0.6538
vn -0.6133 -0.4977 0.6133
vn -0.5624 -0.6061 0.5624
vn -0.5019 -0.7044 0.5019
vn -0.4329 -0.7907 0.4329
vn -0.3564 -0.8637 0.3564
vn -0.2739 -0.9219 0.2739
vn -0.1866 -0.9646 0.1866
vn -0.0961 -0.9907 0.0961
vn -0.1177 0.9907 0.0679
vn -0.2285 0.9646 0.1319
vn -0.3354 0.9219 0.1937
vn -0.4365 0.8637 0.2520
vn -0.5302 0.7907 0.3061
vn -0.6147 0.7044 0.3549
vn -0.6888 0.6061 0.3977
vn -0.7512 0.4977 0.4337
vn -0.8008 0.3808 0.4623
vn -0.8368 0.2575 0.4831
vn -0.8587 0.1298 0.4958
vn -0.8660 -0.0000 0.5000
vn -0.8587 -0.1298 0.4958
vn -0.8368 -0.2575 0.4831
vn -0.8008 -0.3808 0.4623
vn -0.7512 -0.4977 0.4337
vn -0.6888 -0.6061 0.3977
vn -0.6147 -0.7044 0.3549
vn -0.5302 -0.7907 0.3061
vn -0.4365 -0.8637 0.2520
vn -0.3354 -0.9219 0.1937
vn -0.2285 -0.9646 0.1319
vn -0.1177 -0.9907 0.0679
vn -0.0000 -1.0000 -0.0000
vn -0.1312 0.9907 0.0352
vn -0.2549 0.9646 0.0683
vn -0.3741 0.9219 0.1002
vn -0.4869 0.8637 0.1305
vn -0.5913 0.7907 0.1584
vn -0.6856 0.7044 0.1837
vn -0.7683 0.6061 0.2059
vn -0.8378 0.4977 0.2245
vn -0.8932 0.3808 0.2393
vn -0.9334 0.2575 0.2501
vn -0.9578 0.1298 0.2566
vn -0.9659 -0.0000 0.2588
vn -0.9578 -0.1298 0.2566
vn -0.9334 -0.2575 0.2501
vn -0.8932 -0.3808 0.2393
vn -0.8378 -0.4977 0.2245
vn -0.7683 -0.6061 0.2059
vn -0.6856 -0.7044 0.1837
vn -0.5913 -0.7907 0.1584
vn -0.4869 -0.8637 0.1305
vn -0.3741 -0.9219 0.1002
vn -0.2549 -0.9646 0.0683
vn -0.1312 -0.9907 0.0352
vn -0.1359 0.9907 -0.0000
vn -0.2639 0.9646 -0.0000
vn -0.3873 0.9219 -0.0000
vn -0.5041 0.8637 -0.0000
vn -0.6122 0.7907 -0.0000
vn -0.7098 0.7044 -0.0000
vn -0.7954 0.6061 -0.0000
vn -0.8674 0.4977 -0.0000
vn -0.9247 0.3808 -0.0000
vn -0.9663 0.2575 -0.0000
vn -0.9915 0.1298 -0.0000
vn -1.0000 -0.0000 -0.0000
vn -0.9915 -0.1298 -0.0000
vn -0.9663 -0.2575 -0.0000
vn -0.9247 -0.3808 -0.0000
vn -0.8674 -0.4977 -0.0000
vn -0.7954 -0.6061 -0.0000
vn -0.7098 -0.7044 -0.0000
vn -0.6122 -0.7907 -0.0000
vn -0.5041 -0.8637 -0.0000
vn -0.3873 -0.9219 -0.0000
vn -0.2639 -0.9646 -0.0000
vn -0.1359 -0.9907 -0.0000
vn -0.1312 0.9907 -0.0352
vn -0.2549 0.9646 -0.0683
vn -0.3741 0.9219 -0.1002
vn -0.4869 0.8637 -0.1305
vn -0.5913 0.7907 -0.1584
vn -0.6856 0.7044 -0.1837
vn -0.7683 0.6061 -0.2059
vn -0.8378 0.4977 -0.2245
vn -0.8932 0.3808 -0.2393
vn -0.9334 0.2575 -0.2501
vn -0.9578 0.1298 -0.2566
vn -0.9659 -0.0000 -0.2588
vn -0.9578 -0.1298 -0.2566
vn -0.9334 -0.2575 -0.2501
vn -0.8932 -0.3808 -0.2393
vn -0.8378 -0.4977 -0.2245
vn -0.7683 -0.6061 -0.2059
vn -0.6856 -0.7044 -0.1837
vn -0.5913 -0.7907 -0.1584
vn -0.4869 -0.8637 -0.1305
vn -0.3741 -0.9219 -0.1002
vn -0.2549 -0.9646 -0.0683
vn -0.1312 -0.9907 -0.0352
vn -0.1177 0.9907 -0.0679
vn -0.2285 0.9646 -0.1319
vn -0.3354 0.9219 -0.1937
vn -0.4365 0.8637 -0.2520
vn -0.5302 0.7907 -0.3061
vn -0.6147 0.7044 -0.3549
vn -0.6888 0.6061 -0.3977
vn -0.7512 0.4977 -0.4337
vn -0.8008 0.3808 -0.4623
vn -0.8368 0.2575 -0.4831
vn -0.8587 0.1298 -0.4958
vn -0.8660 -0.0000 -0.5000
vn -0.8587 -0.1298 -0.4958
vn -0.8368 -0.2575 -0.4831
vn -0.8008 -0.3808 -0.4623
vn -0.7512 -0.4977 -0.4337
vn -0.6888 -0.6061 -0.3977
vn -0.6147 -0.7044 -0.3549
vn -0.5302 -0.7907 -0.3061
vn -0.4365 -0.8637 -0.2520
vn -0.3354 -0.9219 -0.1937
vn -0.2285 -0.9646 -0.1319
vn -0.1177 -0.9907 -0.0679
vn -0.0961 0.9907 -0.0961
vn -0.1866 0.9646 -0.1866
vn -0.2739 0.9219 -0.2739
vn -0.3564 0.8637 -0.3564
vn -0.4329 0.7907 -0.4329
vn -0.5019 0.7044 -0.5019
vn -0.5624 0.6061 -0.5624
vn -0.6133 0.4977 -0.6133
vn -0.6538 0.3808 -0.6538
vn -0.6833 0.2575 -0.6833
vn -0.7011 0.1298 -0.7011
vn -0.7071 -0.0000 -0.7071
vn -0.7011 -0.1298 -0.7011
vn -0.6833 -0.2575 -0.6833
vn -0.6538 -0.3808 -0.6538
vn -0.6133 -0.4977 -0.6133
vn -0.5624 -0.6061 -0.5624
vn -0.5019 -0.7044 -0.5019
vn -0.4329 -0.7907 -0.4329
vn -0.3564 -0.8637 -0.3564
vn -0.2739 -0.9219 -0.2739
vn -0.1866 -0.9646 -0.1866
vn -0.0961 -0.9907 -0.0961
vn -0.0679 0.9907 -0.1177
vn -0.1319 0.9646 -0.2285
vn -0.1937 0.9219 -0.3354
vn -0.2520 0.8637 -0.4365
vn -0.3061 0.7907 -0.5302
vn -0.3549 0.7044 -0.6147
vn -0.3977 0.6061 -0.6888
vn -0.4337 0.4977 -0.7512
vn -0.4623 0.3808 -0.8008
vn -0.4831 0.2575 -0.8368
vn -0.4958 0.1298 -0.8587
vn -0.5000 -0.0000 -0.8660
vn -0.4958 -0.1298 -0.8587
vn -0.4831 -0.2575 -0.8368
vn -0.4623 -0.3808 -0.8008
vn -0.4337 -0.4977 -0.7512
vn -0.3977 -0.6061 -0.6888
vn -0.3549 -0.7044 -0.6147
vn -0.3061 -0.7907 -0.5302
vn -0.2520 -0.8637 -0.4365
vn -0.1937 -0.9219 -0.3354
vn -0.1319 -0.9646 -0.2285
vn -0.0679 -0.9907 -0.1177
vn -0.0352 0.9907 -0.1312
vn -0.0683 0.9646 -0.2549
vn -0.1002 0.9219 -0.3741
vn -0.1305 0.8637 -0.4869
vn -0.1584 0.7907 -0.5913
vn -0.1837 0.7044 -0.6856
vn -0.2059 0.6061 -0.7682
vn -0.2245 0.4977 -0.8378
vn -0.2393 0.3808 -0.8932
vn -0.2501 0.2575 -0.9334
vn -0.2566 0.1298 -0.9578
vn -0.2588 -0.0000 -0.9659
vn -0.2566 -0.1298 -0.9578
vn -0.2501 -0.2575 -0.9334
vn -0.2393 -0.3808 -0.8932
vn -0.2245 -0.4977 -0.8378
vn -0.2059 -0.6061 -0.7683
vn -0.1837 -0.7044 -0.6856
vn -0.1584 -0.7907 -0.5913
vn -0.1305 -0.8637 -0.4869
vn -0.1002 -0.9219 -0.3741
vn -0.0683 -0.9646 -0.2549
vn -0.0352 -0.9907 -0.1312
vn -0.0000 0.9907 -0.1359
vn -0.0000 0.9646 -0.2639
vn -0.0000 0.9219 -0.3873
vn -0.0000 0.8637 -0.5041
vn -0.0000 0.7907 -0.6122
vn -0.0000 0.7044 -0.7098
vn -0.0000 0.6061 -0.7954
vn -0.0000 0.1298 -0.9915
vn -0.0000 -0.1298 -0.9915
vn -0.0000 -0.6061 -0.7954
vn -0.0000 -0.7907 -0.6122
vn -0.0000 -0.8637 -0.5041
vn -0.0000 -0.9219 -0.3873
vn -0.0000 -0.9646 -0.2639
vn -0.0000 -0.9907 -0.1359
vt 0.750000 0.750000
vt 0.750000 0.791667
vt 0.708333 0.791667
vt 0.708333 0.750000
vt 0.750000 0.125000
vt 0.750000 0.166667
vt 0.708333 0.166667
vt 0.708333 0.125000
vt 0.750000 0.416667
vt 0.750000 0.458333
vt 0.708333 0.458333
vt 0.708333 0.416667
vt 0.750000 0.708333
vt 0.708333 0.708333
vt 0.750000 0.083333
vt 0.708333 0.083333
vt 0.750000 0.375000
vt 0.708333 0.375000
vt 0.750000 0.666667
vt 0.708333 0.666667
vt 0.750000 0.041667
vt 0.708333 0.041667
vt 0.750000 0.958333
vt 0.729167 1.000000
vt 0.708333 0.958333
vt 0.750000 0.333333
vt 0.708333 0.333333
vt 0.750000 0.625000
vt 0.708333 0.625000
vt 0.729167 0.000000
vt 0.750000 0.916667
vt 0.708333 0.916667
vt 0.750000 0.291667
vt 0.708333 0.291667
vt 0.750000 0.583333
vt 0.708333 0.583333
vt 0.750000 0.875000
vt 0.708333 0.875000
vt 0.750000 0.250000
vt 0.708333 0.250000
vt 0.750000 0.541667
vt 0.708333 0.541667
vt 0.750000 0.833333
vt 0.708333 0.833333
vt 0.750000 0.208333
vt 0.708333 0.208333
vt 0.750000 0.500000
vt 0.708333 0.500000
vt 0.666667 0.250000
vt 0.666667 0.208333
vt 0.666667 0.541667
vt 0.666667 0.500000
vt 0.666667 0.833333
vt 0.666667 0.791667
vt 0.666667 0.166667
vt 0.666667 0.458333
vt 0.666667 0.750000
vt 0.666667 0.125000
vt 0.666667 0.416667
vt 0.666667 0.708333
vt 0.666667 0.083333
vt 0.666667 0.375000
vt 0.666667 0.666667
vt 0.666667 0.041667
vt 0.687500 1.000000
vt 0.666667 0.958333
vt 0.666667 0.333333
vt 0.666667 0.625000
vt 0.687500 0.000000
vt 0.666667 0.916667
vt 0.666667 0.291667
vt 0.666667 0.583333
vt 0.666667 0.875000
vt 0.625000 0.750000
vt 0.625000 0.708333
vt 0.625000 0.125000
vt 0.625000 0.083333
vt 0.625000 0.416667
vt 0.625000 0.375000
vt 0.625000 0.666667
vt 0.625000 0.041667
vt 0.645833 1.000000
vt 0.625000 0.958333
vt 0.625000 0.333333
vt 0.625000 0.625000
vt 0.645833 0.000000
vt 0.625000 0.916667
vt 0.625000 0.291667
vt 0.625000 0.583333
vt 0.625000 0.875000
vt 0.625000 0.250000
vt 0.625000 0.541667
vt 0.625000 0.833333
vt 0.625000 0.208333
vt 0.625000 0.500000
vt 0.625000 0.791667
vt 0.625000 0.166667
vt 0.625000 0.458333
vt 0.583333 0.625000
vt 0.583333 0.583333
vt 0.583333 0.916667
vt 0.583333 0.875000
vt 0.583333 0.291667
vt 0.583333 0.250000
vt 0.583333 0.541667
vt 0.583333 0.833333
vt 0.583333 0.208333
vt 0.583333 0.500000
vt 0.583333 0.791667
vt 0.583333 0.166667
vt 0.583333 0.458333
vt 0.583333 0.750000
vt 0.583333 0.125000
vt 0.583333 0.416667
vt 0.583333 0.708333
vt 0.583333 0.083333
vt 0.583333 0.375000
vt 0.583333 0.666667
vt 0.583333 0.041667
vt 0.604167 1.000000
vt 0.583333 0.958333
vt 0.583333 0.333333
vt 0.604167 0.000000
vt 0.541667 0.208333
vt 0.541667 0.166667
vt 0.541667 0.500000
vt 0.541667 0.458333
vt 0.541667 0.791667
vt 0.541667 0.750000
vt 0.541667 0.125000
vt 0.541667 0.416667
vt 0.541667 0.708333
vt 0.541667 0.083333
vt 0.541667 0.375000
vt 0.541667 0.666667
vt 0.541667 0.041667
vt 0.562500 1.000000
vt 0.541667 0.958333
vt 0.541667 0.333333
vt 0.541667 0.625000
vt 0.562500 0.000000
vt 0.541667 0.916667
vt 0.541667 0.291667
vt 0.541667 0.583333
vt 0.541667 0.875000
vt 0.541667 0.250000
vt 0.541667 0.541667
vt 0.541667 0.833333
vt 0.500000 0.708333
vt 0.500000 0.666667
vt 0.500000 0.083333
vt 0.500000 0.041667
vt 0.520833 1.000000
vt 0.500000 0.958333
vt 0.500000 0.375000
vt 0.500000 0.333333
vt 0.500000 0.625000
vt 0.520833 0.000000
vt 0.500000 0.916667
vt 0.500000 0.291667
vt 0.500000 0.583333
vt 0.500000 0.875000
vt 0.500000 0.250000
vt 0.500000 0.541667
vt 0.500000 0.833333
vt 0.500000 0.208333
vt 0.500000 0.500000
vt 0.500000 0.791667
vt 0.500000 0.166667
vt 0.500000 0.458333
vt 0.500000 0.750000
vt 0.500000 0.125000
vt 0.500000 0.416667
vt 0.458333 0.583333
vt 0.458333 0.541667
vt 0.458333 0.875000
vt 0.458333 0.833333
vt 0.458333 0.250000
vt 0.458333 0.208333
vt 0.458333 0.500000
vt 0.458333 0.791667
vt 0.458333 0.166667
vt 0.458333 0.458333
vt 0.458333 0.750000
vt 0.458333 0.125000
vt 0.458333 0.416667
vt 0.458333 0.708333
vt 0.458333 0.083333
vt 0.458333 0.375000
vt 0.458333 0.666667
vt 0.458333 0.041667
vt 0.479167 1.000000
vt 0.458333 0.958333
vt 0.458333 0.333333
vt 0.458333 0.625000
vt 0.479167 0.000000
vt 0.458333 0.916667
vt 0.458333 0.291667
vt 0.416667 0.166667
vt 0.416667 0.125000
vt 0.416667 0.458333
vt 0.416667 0.416667
vt 0.416667 0.750000
vt 0.416667 0.708333
vt 0.416667 0.083333
vt 0.416667 0.375000
vt 0.416667 0.666667
vt 0.416667 0.041667
vt 0.437500 1.000000
vt 0.416667 0.958333
vt 0.416667 0.333333
vt 0.416667 0.625000
vt 0.437500 0.000000
vt 0.416667 0.916667
vt 0.416667 0.291667
vt 0.416667 0.583333
vt 0.416667 0.875000
vt 0.416667 0.250000
vt 0.416667 0.541667
vt 0.416667 0.833333
vt 0.416667 0.208333
vt 0.416667 0.500000
vt 0.416667 0.791667
vt 0.375000 0.666667
vt 0.375000 0.625000
vt 0.395833 0.000000
vt 0.375000 0.041667
vt 0.375000 0.958333
vt 0.375000 0.916667
vt 0.375000 0.333333
vt 0.375000 0.291667
vt 0.375000 0.583333
vt 0.375000 0.875000
vt 0.375000 0.250000
vt 0.375000 0.541667
vt 0.375000 0.833333
vt 0.375000 0.208333
vt 0.375000 0.500000
vt 0.375000 0.791667
vt 0.375000 0.166667
vt 0.375000 0.458333
vt 0.375000 0.750000
vt 0.375000 0.125000
vt 0.375000 0.416667
vt 0.375000 0.708333
vt 0.375000 0.083333
vt 0.375000 0.375000
vt 0.395833 1.000000
vt 0.333333 0.541667
vt 0.333333 0.500000
vt 0.333333 0.833333
vt 0.333333 0.791667
vt 0.333333 0.208333
vt 0.333333 0.166667
vt 0.333333 0.458333
vt 0.333333 0.750000
vt 0.333333 0.125000
vt 0.333333 0.416667
vt 0.333333 0.708333
vt 0.333333 0.083333
vt 0.333333 0.375000
vt 0.333333 0.666667
vt 0.333333 0.041667
vt 0.354167 1.000000
vt 0.333333 0.958333
vt 0.333333 0.333333
vt 0.333333 0.625000
vt 0.354167 0.000000
vt 0.333333 0.916667
vt 0.333333 0.291667
vt 0.333333 0.583333
vt 0.333333 0.875000
vt 0.333333 0.250000
vt 0.291667 0.125000
vt 0.291667 0.083333
vt 0.291667 0.416667
vt 0.291667 0.375000
vt 0.291667 0.708333
vt 0.291667 0.666667
vt 0.291667 0.041667
vt 0.312500 1.000000
vt 0.291667 0.958333
vt 0.291667 0.333333
vt 0.291667 0.625000
vt 0.312500 0.000000
vt 0.291667 0.916667
vt 0.291667 0.291667
vt 0.291667 0.583333
vt 0.291667 0.875000
vt 0.291667 0.250000
vt 0.291667 0.541667
vt 0.291667 0.833333
vt 0.291667 0.208333
vt 0.291667 0.500000
vt 0.291667 0.791667
vt 0.291667 0.166667
vt 0.291667 0.458333
vt 0.291667 0.750000
vt 0.250000 0.625000
vt 0.250000 0.583333
vt 0.250000 0.916667
vt 0.250000 0.875000
vt 0.250000 0.291667
vt 0.250000 0.250000
vt 0.250000 0.541667
vt 0.250000 0.833333
vt 0.250000 0.208333
vt 0.250000 0.500000
vt 0.250000 0.791667
vt 0.250000 0.166667
vt 0.250000 0.458333
vt 0.250000 0.750000
vt 0.250000 0.125000
vt 0.250000 0.416667
vt 0.250000 0.708333
vt 0.250000 0.083333
vt 0.250000 0.375000
vt 0.250000 0.666667
vt 0.250000 0.041667
vt 0.270833 1.000000
vt 0.250000 0.958333
vt 0.250000 0.333333
vt 0.270833 0.000000
vt 0.208333 0.500000
vt 0.208333 0.458333
vt 0.208333 0.791667
vt 0.208333 0.750000
vt 0.208333 0.166667
vt 0.208333 0.125000
vt 0.208333 0.416667
vt 0.208333 0.708333
vt 0.208333 0.083333
vt 0.208333 0.375000
vt 0.208333 0.666667
vt 0.208333 0.041667
vt 0.229167 1.000000
vt 0.208333 0.958333
vt 0.208333 0.333333
vt 0.208333 0.625000
vt 0.229167 0.000000
vt 0.208333 0.916667
vt 0.208333 0.291667
vt 0.208333 0.583333
vt 0.208333 0.875000
vt 0.208333 0.250000
vt 0.208333 0.541667
vt 0.208333 0.833333
vt 0.208333 0.208333
vt 0.166667 0.083333
vt 0.166667 0.041667
vt 0.187500 1.000000
vt 0.166667 0.958333
vt 0.166667 0.375000
vt 0.166667 0.333333
vt 0.166667 0.666667
vt 0.166667 0.625000
vt 0.187500 0.000000
vt 0.166667 0.916667
vt 0.166667 0.291667
vt 0.166667 0.583333
vt 0.166667 0.875000
vt 0.166667 0.250000
vt 0.166667 0.541667
vt 0.166667 0.833333
vt 0.166667 0.208333
vt 0.166667 0.500000
vt 0.166667 0.791667
vt 0.166667 0.166667
vt 0.166667 0.458333
vt 0.166667 0.750000
vt 0.166667 0.125000
vt 0.166667 0.416667
vt 0.166667 0.708333
vt 0.125000 0.583333
vt 0.125000 0.541667
vt 0.125000 0.875000
vt 0.125000 0.833333
vt 0.125000 0.250000
vt 0.125000 0.208333
vt 0.125000 0.500000
vt 0.125000 0.791667
vt 0.125000 0.166667
vt 0.125000 0.458333
vt 0.125000 0.750000
vt 0.125000 0.125000
vt 0.125000 0.416667
vt 0.125000 0.708333
vt 0.125000 0.083333
vt 0.125000 0.375000
vt 0.125000 0.666667
vt 0.125000 0.041667
vt 0.145833 1.000000
vt 0.125000 0.958333
vt 0.125000 0.333333
vt 0.125000 0.625000
vt 0.145833 0.000000
vt 0.125000 0.916667
vt 0.125000 0.291667
vt 0.083333 0.458333
vt 0.083333 0.416667
vt 0.083333 0.750000
vt 0.083333 0.708333
vt 0.083333 0.125000
vt 0.083333 0.083333
vt 0.083333 0.375000
vt 0.083333 0.666667
vt 0.083333 0.041667
vt 0.104167 1.000000
vt 0.083333 0.958333
vt 0.083333 0.333333
vt 0.083333 0.625000
vt 0.104167 0.000000
vt 0.083333 0.916667
vt 0.083333 0.291667
vt 0.083333 0.583333
vt 0.083333 0.875000
vt 0.083333 0.250000
vt 0.083333 0.541667
vt 0.083333 0.833333
vt 0.083333 0.208333
vt 0.083333 0.500000
vt 0.083333 0.791667
vt 0.083333 0.166667
vt 0.062500 0.000000
vt 0.041667 0.041667
vt 0.041667 0.958333
vt 0.041667 0.916667
vt 0.041667 0.333333
vt 0.041667 0.291667
vt 0.041667 0.625000
vt 0.041667 0.583333
vt 0.041667 0.875000
vt 0.041667 0.250000
vt 0.041667 0.541667
vt 0.041667 0.833333
vt 0.041667 0.208333
vt 0.041667 0.500000
vt 0.041667 0.791667
vt 0.041667 0.166667
vt 0.041667 0.458333
vt 0.041667 0.750000
vt 0.041667 0.125000
vt 0.041667 0.416667
vt 0.041667 0.708333
vt 0.041667 0.083333
vt 0.041667 0.375000
vt 0.041667 0.666667
vt 0.062500 1.000000
vt 0.000000 0.541667
vt 0.000000 0.500000
vt 0.000000 0.833333
vt 0.000000 0.791667
vt 0.000000 0.208333
vt 0.000000 0.166667
vt 0.000000 0.458333
vt 0.000000 0.750000
vt 0.000000 0.125000
vt 0.000000 0.416667
vt 0.000000 0.708333
vt 0.000000 0.083333
vt 0.000000 0.375000
vt 0.000000 0.666667
vt 0.000000 0.041667
vt 0.020833 1.000000
vt 0.000000 0.958333
vt 0.000000 0.333333
vt 0.000000 0.625000
vt 0.020833 0.000000
vt 0.000000 0.916667
vt 0.000000 0.291667
vt 0.000000 0.583333
vt 0.000000 0.875000
vt 0.000000 0.250000
vt 1.000000 0.375000
vt 1.000000 0.416667
vt 0.958333 0.416667
vt 0.958333 0.375000
vt 1.000000 0.666667
vt 1.000000 0.708333
vt 0.958333 0.708333
vt 0.958333 0.666667
vt 1.000000 0.041667
vt 1.000000 0.083333
vt 0.958333 0.083333
vt 0.958333 0.041667
vt 1.000000 0.958333
vt 0.979167 1.000000
vt 0.958333 0.958333
vt 1.000000 0.333333
vt 0.958333 0.333333
vt 1.000000 0.625000
vt 0.958333 0.625000
vt 0.979167 0.000000
vt 1.000000 0.916667
vt 0.958333 0.916667
vt 1.000000 0.291667
vt 0.958333 0.291667
vt 1.000000 0.583333
vt 0.958333 0.583333
vt 1.000000 0.875000
vt 0.958333 0.875000
vt 1.000000 0.250000
vt 0.958333 0.250000
vt 1.000000 0.541667
vt 0.958333 0.541667
vt 1.000000 0.833333
vt 0.958333 0.833333
vt 1.000000 0.208333
vt 0.958333 0.208333
vt 1.000000 0.500000
vt 0.958333 0.500000
vt 1.000000 0.791667
vt 0.958333 0.791667
vt 1.000000 0.166667
vt 0.958333 0.166667
vt 1.000000 0.458333
vt 0.958333 0.458333
vt 1.000000 0.750000
vt 0.958333 0.750000
vt 1.000000 0.125000
vt 0.958333 0.125000
vt 0.916667 0.916667
vt 0.916667 0.875000
vt 0.916667 0.291667
vt 0.916667 0.250000
vt 0.916667 0.583333
vt 0.916667 0.541667
vt 0.916667 0.833333
vt 0.916667 0.208333
vt 0.916667 0.500000
vt 0.916667 0.791667
vt 0.916667 0.166667
vt 0.916667 0.458333
vt 0.916667 0.750000
vt 0.916667 0.125000
vt 0.916667 0.416667
vt 0.916667 0.708333
vt 0.916667 0.083333
vt 0.916667 0.375000
vt 0.916667 0.666667
vt 0.916667 0.041667
vt 0.937500 1.000000
vt 0.916667 0.958333
vt 0.916667 0.333333
vt 0.916667 0.625000
vt 0.937500 0.000000
vt 0.875000 0.500000
vt 0.875000 0.458333
vt 0.875000 0.791667
vt 0.875000 0.750000
vt 0.875000 0.166667
vt 0.875000 0.125000
vt 0.875000 0.416667
vt 0.875000 0.708333
vt 0.875000 0.083333
vt 0.875000 0.375000
vt 0.875000 0.666667
vt 0.875000 0.041667
vt 0.895833 1.000000
vt 0.875000 0.958333
vt 0.875000 0.333333
vt 0.875000 0.625000
vt 0.895833 0.000000
vt 0.875000 0.916667
vt 0.875000 0.291667
vt 0.875000 0.583333
vt 0.875000 0.875000
vt 0.875000 0.250000
vt 0.875000 0.541667
vt 0.875000 0.833333
vt 0.875000 0.208333
vt 0.854167 1.000000
vt 0.833333 0.958333
vt 0.833333 0.375000
vt 0.833333 0.333333
vt 0.833333 0.666667
vt 0.833333 0.625000
vt 0.854167 0.000000
vt 0.833333 0.041667
vt 0.833333 0.916667
vt 0.833333 0.291667
vt 0.833333 0.583333
vt 0.833333 0.875000
vt 0.833333 0.250000
vt 0.833333 0.541667
vt 0.833333 0.833333
vt 0.833333 0.208333
vt 0.833333 0.500000
vt 0.833333 0.791667
vt 0.833333 0.166667
vt 0.833333 0.458333
vt 0.833333 0.750000
vt 0.833333 0.125000
vt 0.833333 0.416667
vt 0.833333 0.708333
vt 0.833333 0.083333
vt 0.791667 0.875000
vt 0.791667 0.833333
vt 0.791667 0.250000
vt 0.791667 0.208333
vt 0.791667 0.541667
vt 0.791667 0.500000
vt 0.791667 0.791667
vt 0.791667 0.166667
vt 0.791667 0.458333
vt 0.791667 0.750000
vt 0.791667 0.125000
vt 0.791667 0.416667
vt 0.791667 0.708333
vt 0.791667 0.083333
vt 0.791667 0.375000
vt 0.791667 0.666667
vt 0.791667 0.041667
vt 0.812500 1.000000
vt 0.791667 0.958333
vt 0.791667 0.333333
vt 0.791667 0.625000
vt 0.812500 0.000000
vt 0.791667 0.916667
vt 0.791667 0.291667
vt 0.791667 0.583333
vt 0.770833 1.000000
vt 0.770833 0.000000
s 1
f 545/1/545 544/2/544 13/3/13 14/4/14
f 552/5/552 551/6/551 28/7/28 29/8/29
f 5/9/5 548/10/548 21/11/21 22/12/22
f 546/13/546 545/1/545 14/4/14 15/14/15
f 553/15/553 552/5/552 29/8/29 30/16/30
f 6/17/6 5/9/5 22/12/22 23/18/23
f 1/19/1 546/13/546 15/14/15 16/20/16
f 554/21/554 553/15/553 30/16/30 31/22/31
f 540/23/540 285/24/285 9/25/9
f 7/26/7 6/17/6 23/18/23 24/27/24
f 2/28/2 1/19/1 16/20/16 17/29/17
f 378/30/378 554/21/554 31/22/31
f 541/31/541 540/23/540 9/25/9 10/32/10
f 549/33/549 7/26/7 24/27/24 25/34/25
f 3/35/3 2/28/2 17/29/17 18/36/18
f 542/37/542 541/31/541 10/32/10 11/38/11
f 8/39/8 549/33/549 25/34/25 26/40/26
f 547/41/547 3/35/3 18/36/18 19/42/19
f 543/43/543 542/37/542 11/38/11 12/44/12
f 550/45/550 8/39/8 26/40/26 27/46/27
f 4/47/4 547/41/547 19/42/19 20/48/20
f 544/2/544 543/43/543 12/44/12 13/3/13
f 551/6/551 550/45/550 27/46/27 28/7/28
f 548/10/548 4/47/4 20/48/20 21/11/21
f 27/46/27 26/40/26 49/49/49 50/50/50
f 20/48/20 19/42/19 42/51/42 43/52/43
f 13/3/13 12/44/12 35/53/35 36/54/36
f 28/7/28 27/46/27 50/50/50 51/55/51
f 21/11/21 20/48/20 43/52/43 44/56/44
f 14/4/14 13/3/13 36/54/36 37/57/37
f 29/8/29 28/7/28 51/55/51 52/58/52
f 22/12/22 21/11/21 44/56/44 45/59/45
f 15/14/15 14/4/14 37/57/37 38/60/38
f 30/16/30 29/8/29 52/58/52 53/61/53
f 23/18/23 22/12/22 45/59/45 46/62/46
f 16/20/16 15/14/15 38/60/38 39/63/39
f 31/22/31 30/16/30 53/61/53 54/64/54
f 9/25/9 285/65/285 32/66/32
f 24/27/24 23/18/23 46/62/46 47/67/47
f 17/29/17 16/20/16 39/63/39 40/68/40
f 378/69/378 31/22/31 54/64/54
f 10/32/10 9/25/9 32/66/32 33/70/33
f 25/34/25 24/27/24 47/67/47 48/71/48
f 18/36/18 17/29/17 40/68/40 41/72/41
f 11/38/11 10/32/10 33/70/33 34/73/34
f 26/40/26 25/34/25 48/71/48 49/49/49
f 19/42/19 18/36/18 41/72/41 42/51/42
f 12/44/12 11/38/11 34/73/34 35/53/35
f 38/60/38 37/57/37 60/74/60 61/75/61
f 53/61/53 52/58/52 75/76/75 76/77/76
f 46/62/46 45/59/45 68/78/68 69/79/69
f 39/63/39 38/60/38 61/75/61 62/80/62
f 54/64/54 53/61/53 76/77/76 77/81/77
f 32/66/32 285/82/285 55/83/55
f 47/67/47 46/62/46 69/79/69 70/84/70
f 40/68/40 39/63/39 62/80/62 63/85/63
f 378/86/378 54/64/54 77/81/77
f 33/70/33 32/66/32 55/83/55 56/87/56
f 48/71/48 47/67/47 70/84/70 71/88/71
f 41/72/41 40/68/40 63/85/63 64/89/64
f 34/73/34 33/70/33 56/87/56 57/90/57
f 49/49/49 48/71/48 71/88/71 72/91/72
f 42/51/42 41/72/41 64/89/64 65/92/65
f 35/53/35 34/73/34 57/90/57 58/93/58
f 50/50/50 49/49/49 72/91/72 73/94/73
f 43/52/43 42/51/42 65/92/65 66/95/66
f 36/54/36 35/53/35 58/93/58 59/96/59
f 51/55/51 50/50/50 73/94/73 74/97/74
f 44/56/44 43/52/43 66/95/66 67/98/67
f 37/57/37 36/54/36 59/96/59 60/74/60
f 52/58/52 51/55/51 74/97/74 75/76/75
f 45/59/45 44/56/44 67/98/67 68/78/68
f 64/89/64 63/85/63 86/99/86 87/100/87
f 57/90/57 56/87/56 79/101/79 80/102/80
f 72/91/72 71/88/71 94/103/94 95/104/95
f 65/92/65 64/89/64 87/100/87 88/105/88
f 58/93/58 57/90/57 80/102/80 81/106/81
f 73/94/73 72/91/72 95/104/95 96/107/96
f 66/95/66 65/92/65 88/105/88 89/108/89
f 59/96/59 58/93/58 81/106/81 82/109/82
f 74/97/74 73/94/73 96/107/96 97/110/97
f 67/98/67 66/95/66 89/108/89 90/111/90
f 60/74/60 59/96/59 82/109/82 83/112/83
f 75/76/75 74/97/74 97/110/97 98/113/98
f 68/78/68 67/98/67 90/111/90 91/114/91
f 61/75/61 60/74/60 83/112/83 84/115/84
f 76/77/76 75/76/75 98/113/98 99/116/99
f 69/79/69 68/78/68 91/114/91 92/117/92
f 62/80/62 61/75/61 84/115/84 85/118/85
f 77/81/77 76/77/76 99/116/99 100/119/100
f 55/83/55 285/120/285 78/121/78
f 70/84/70 69/79/69 92/117/92 93/122/93
f 63/85/63 62/80/62 85/118/85 86/99/86
f 378/123/378 77/81/77 100/119/100
f 56/87/56 55/83/55 78/121/78 79/101/79
f 71/88/71 70/84/70 93/122/93 94/103/94
f 97/110/97 96/107/96 119/124/119 120/125/120
f 90/111/90 89/108/89 112/126/112 113/127/113
f 83/112/83 82/109/82 105/128/105 106/129/106
f 98/113/98 97/110/97 120/125/120 121/130/121
f 91/114/91 90/111/90 113/127/113 114/131/114
f 84/115/84 83/112/83 106/129/106 107/132/107
f 99/116/99 98/113/98 121/130/121 122/133/122
f 92/117/92 91/114/91 114/131/114 115/134/115
f 85/118/85 84/115/84 107/132/107 108/135/108
f 100/119/100 99/116/99 122/133/122 123/136/123
f 78/121/78 285/137/285 101/138/101
f 93/122/93 92/117/92 115/134/115 116/139/116
f 86/99/86 85/118/85 108/135/108 109/140/109
f 378/141/378 100/119/100 123/136/123
f 79/101/79 78/121/78 101/138/101 102/142/102
f 94/103/94 93/122/93 116/139/116 117/143/117
f 87/100/87 86/99/86 109/140/109 110/144/110
f 80/102/80 79/101/79 102/142/102 103/145/103
f 95/104/95 94/103/94 117/143/117 118/146/118
f 88/105/88 87/100/87 110/144/110 111/147/111
f 81/106/81 80/102/80 103/145/103 104/148/104
f 96/107/96 95/104/95 118/146/118 119/124/119
f 89/108/89 88/105/88 111/147/111 112/126/112
f 82/109/82 81/106/81 104/148/104 105/128/105
f 108/135/108 107/132/107 130/149/130 131/150/131
f 123/136/123 122/133/122 145/151/145 146/152/146
f 101/138/101 285/153/285 124/154/124
f 116/139/116 115/134/115 138/155/138 139/156/139
f 109/140/109 108/135/108 131/150/131 132/157/132
f 378/158/378 123/136/123 146/152/146
f 102/142/102 101/138/101 124/154/124 125/159/125
f 117/143/117 116/139/116 139/156/139 140/160/140
f 110/144/110 109/140/109 132/157/132 133/161/133
f 103/145/103 102/142/102 125/159/125 126/162/126
f 118/146/118 117/143/117 140/160/140 141/163/141
f 111/147/111 110/144/110 133/161/133 134/164/134
f 104/148/104 103/145/103 126/162/126 127/165/127
f 119/124/119 118/146/118 141/163/141 142/166/142
f 112/126/112 111/147/111 134/164/134 135/167/135
f 105/128/105 104/148/104 127/165/127 128/168/128
f 120/125/120 119/124/119 142/166/142 143/169/143
f 113/127/113 112/126/112 135/167/135 136/170/136
f 106/129/106 105/128/105 128/168/128 129/171/129
f 121/130/121 120/125/120 143/169/143 144/172/144
f 114/131/114 113/127/113 136/170/136 137/173/137
f 107/132/107 106/129/106 129/171/129 130/149/130
f 122/133/122 121/130/121 144/172/144 145/151/145
f 115/134/115 114/131/114 137/173/137 138/155/138
f 134/164/134 133/161/133 156/174/156 157/175/157
f 127/165/127 126/162/126 149/176/149 150/177/150
f 142/166/142 141/163/141 164/178/164 165/179/165
f 135/167/135 134/164/134 157/175/157 158/180/158
f 128/168/128 127/165/127 150/177/150 151/181/151
f 143/169/143 142/166/142 165/179/165 166/182/166
f 136/170/136 135/167/135 158/180/158 159/183/159
f 129/171/129 128/168/128 151/181/151 152/184/152
f 144/172/144 143/169/143 166/182/166 167/185/167
f 137/173/137 136/170/136 159/183/159 160/186/160
f 130/149/130 129/171/129 152/184/152 153/187/153
f 145/151/145 144/172/144 167/185/167 168/188/168
f 138/155/138 137/173/137 160/186/160 161/189/161
f 131/150/131 130/149/130 153/187/153 154/190/154
f 146/152/146 145/151/145 168/188/168 169/191/169
f 124/154/124 285/192/285 147/193/147
f 139/156/139 138/155/138 161/189/161 162/194/162
f 132/157/132 131/150/131 154/190/154 155/195/155
f 378/196/378 146/152/146 169/191/169
f 125/159/125 124/154/124 147/193/147 148/197/148
f 140/160/140 139/156/139 162/194/162 163/198/163
f 133/161/133 132/157/132 155/195/155 156/174/156
f 126/162/126 125/159/125 148/197/148 149/176/149
f 141/163/141 140/160/140 163/198/163 164/178/164
f 167/185/167 166/182/166 189/199/189 190/200/190
f 160/186/160 159/183/159 182/201/182 183/202/183
f 153/187/153 152/184/152 175/203/175 176/204/176
f 168/188/168 167/185/167 190/200/190 191/205/191
f 161/189/161 160/186/160 183/202/183 184/206/184
f 154/190/154 153/187/153 176/204/176 177/207/177
f 169/191/169 168/188/168 191/205/191 192/208/192
f 147/193/147 285/209/285 170/210/170
f 162/194/162 161/189/161 184/206/184 185/211/185
f 155/195/155 154/190/154 177/207/177 178/212/178
f 378/213/378 169/191/169 192/208/192
f 148/197/148 147/193/147 170/210/170 171/214/171
f 163/198/163 162/194/162 185/211/185 186/215/186
f 156/174/156 155/195/155 178/212/178 179/216/179
f 149/176/149 148/197/148 171/214/171 172/217/172
f 164/178/164 163/198/163 186/215/186 187/218/187
f 157/175/157 156/174/156 179/216/179 180/219/180
f 150/177/150 149/176/149 172/217/172 173/220/173
f 165/179/165 164/178/164 187/218/187 188/221/188
f 158/180/158 157/175/157 180/219/180 181/222/181
f 151/181/151 150/177/150 173/220/173 174/223/174
f 166/182/166 165/179/165 188/221/188 189/199/189
f 159/183/159 158/180/158 181/222/181 182/201/182
f 152/184/152 151/181/151 174/223/174 175/203/175
f 178/212/178 177/207/177 200/224/200 201/225/201
f 378/226/378 192/208/192 215/227/215
f 171/214/171 170/210/170 193/228/193 194/229/194
f 186/215/186 185/211/185 208/230/208 209/231/209
f 179/216/179 178/212/178 201/225/201 202/232/202
f 172/217/172 171/214/171 194/229/194 195/233/195
f 187/218/187 186/215/186 209/231/209 210/234/210
f 180/219/180 179/216/179 202/232/202 203/235/203
f 173/220/173 172/217/172 195/233/195 196/236/196
f 188/221/188 187/218/187 210/234/210 211/237/211
f 181/222/181 180/219/180 203/235/203 204/238/204
f 174/223/174 173/220/173 196/236/196 197/239/197
f 189/199/189 188/221/188 211/237/211 212/240/212
f 182/201/182 181/222/181 204/238/204 205/241/205
f 175/203/175 174/223/174 197/239/197 198/242/198
f 190/200/190 189/199/189 212/240/212 213/243/213
f 183/202/183 182/201/182 205/241/205 206/244/206
f 176/204/176 175/203/175 198/242/198 199/245/199
f 191/205/191 190/200/190 213/243/213 214/246/214
f 184/206/184 183/202/183 206/244/206 207/247/207
f 177/207/177 176/204/176 199/245/199 200/224/200
f 192/208/192 191/205/191 214/246/214 215/227/215
f 170/210/170 285/248/285 193/228/193
f 185/211/185 184/206/184 207/247/207 208/230/208
f 204/238/204 203/235/203 226/249/226 227/250/227
f 197/239/197 196/236/196 219/251/219 220/252/220
f 212/240/212 211/237/211 234/253/234 235/254/235
f 205/241/205 204/238/204 227/250/227 228/255/228
f 198/242/198 197/239/197 220/252/220 221/256/221
f 213/243/213 212/240/212 235/254/235 236/257/236
f 206/244/206 205/241/205 228/255/228 229/258/229
f 199/245/199 198/242/198 221/256/221 222/259/222
f 214/246/214 213/243/213 236/257/236 237/260/237
f 207/247/207 206/244/206 229/258/229 230/261/230
f 200/224/200 199/245/199 222/259/222 223/262/223
f 215/227/215 214/246/214 237/260/237 238/263/238
f 193/228/193 285/264/285 216/265/216
f 208/230/208 207/247/207 230/261/230 231/266/231
f 201/225/201 200/224/200 223/262/223 224/267/224
f 378/268/378 215/227/215 238/263/238
f 194/229/194 193/228/193 216/265/216 217/269/217
f 209/231/209 208/230/208 231/266/231 232/270/232
f 202/232/202 201/225/201 224/267/224 225/271/225
f 195/233/195 194/229/194 217/269/217 218/272/218
f 210/234/210 209/231/209 232/270/232 233/273/233
f 203/235/203 202/232/202 225/271/225 226/249/226
f 196/236/196 195/233/195 218/272/218 219/251/219
f 211/237/211 210/234/210 233/273/233 234/253/234
f 237/260/237 236/257/236 259/274/259 260/275/260
f 230/261/230 229/258/229 252/276/252 253/277/253
f 223/262/223 222/259/222 245/278/245 246/279/246
f 238/263/238 237/260/237 260/275/260 261/280/261
f 216/265/216 285/281/285 239/282/239
f 231/266/231 230/261/230 253/277/253 254/283/254
f 224/267/224 223/262/223 246/279/246 247/284/247
f 378/285/378 238/263/238 261/280/261
f 217/269/217 216/265/216 239/282/239 240/286/240
f 232/270/232 231/266/231 254/283/254 255/287/255
f 225/271/225 224/267/224 247/284/247 248/288/248
f 218/272/218 217/269/217 240/286/240 241/289/241
f 233/273/233 232/270/232 255/287/255 256/290/256
f 226/249/226 225/271/225 248/288/248 249/291/249
f 219/251/219 218/272/218 241/289/241 242/292/242
f 234/253/234 233/273/233 256/290/256 257/293/257
f 227/250/227 226/249/226 249/291/249 250/294/250
f 220/252/220 219/251/219 242/292/242 243/295/243
f 235/254/235 234/253/234 257/293/257 258/296/258
f 228/255/228 227/250/227 250/294/250 251/297/251
f 221/256/221 220/252/220 243/295/243 244/298/244
f 236/257/236 235/254/235 258/296/258 259/274/259
f 229/258/229 228/255/228 251/297/251 252/276/252
f 222/259/222 221/256/221 244/298/244 245/278/245
f 248/288/248 247/284/247 270/299/270 271/300/271
f 241/289/241 240/286/240 263/301/263 264/302/264
f 256/290/256 255/287/255 278/303/278 279/304/279
f 249/291/249 248/288/248 271/300/271 272/305/272
f 242/292/242 241/289/241 264/302/264 265/306/265
f 257/293/257 256/290/256 279/304/279 280/307/280
f 250/294/250 249/291/249 272/305/272 273/308/273
f 243/295/243 242/292/242 265/306/265 266/309/266
f 258/296/258 257/293/257 280/307/280 281/310/281
f 251/297/251 250/294/250 273/308/273 274/311/274
f 244/298/244 243/295/243 266/309/266 267/312/267
f 259/274/259 258/296/258 281/310/281 282/313/282
f 252/276/252 251/297/251 274/311/274 275/314/275
f 245/278/245 244/298/244 267/312/267 268/315/268
f 260/275/260 259/274/259 282/313/282 283/316/283
f 253/277/253 252/276/252 275/314/275 276/317/276
f 246/279/246 245/278/245 268/315/268 269/318/269
f 261/280/261 260/275/260 283/316/283 284/319/284
f 239/282/239 285/320/285 262/321/262
f 254/283/254 253/277/253 276/317/276 277/322/277
f 247/284/247 246/279/246 269/318/269 270/299/270
f 378/323/378 261/280/261 284/319/284
f 240/286/240 239/282/239 262/321/262 263/301/263
f 255/287/255 254/283/254 277/322/277 278/303/278
f 274/311/274 273/308/273 297/324/297 298/325/298
f 267/312/267 266/309/266 290/326/290 291/327/291
f 282/313/282 281/310/281 305/328/305 306/329/306
f 275/314/275 274/311/274 298/325/298 299/330/299
f 268/315/268 267/312/267 291/327/291 292/331/292
f 283/316/283 282/313/282 306/329/306 307/332/307
f 276/317/276 275/314/275 299/330/299 300/333/300
f 269/318/269 268/315/268 292/331/292 293/334/293
f 284/319/284 283/316/283 307/332/307 308/335/308
f 262/321/262 285/336/285 286/337/286
f 277/322/277 276/317/276 300/333/300 301/338/301
f 270/299/270 269/318/269 293/334/293 294/339/294
f 378/340/378 284/319/284 308/335/308
f 263/301/263 262/321/262 286/337/286 287/341/287
f 278/303/278 277/322/277 301/338/301 302/342/302
f 271/300/271 270/299/270 294/339/294 295/343/295
f 264/302/264 263/301/263 287/341/287 288/344/288
f 279/304/279 278/303/278 302/342/302 303/345/303
f 272/305/272 271/300/271 295/343/295 296/346/296
f 265/306/265 264/302/264 288/344/288 289/347/289
f 280/307/280 279/304/279 303/345/303 304/348/304
f 273/308/273 272/305/272 296/346/296 297/324/297
f 266/309/266 265/306/265 289/347/289 290/326/290
f 281/310/281 280/307/280 304/348/304 305/328/305
f 308/335/308 307/332/307 330/349/330 331/350/331
f 286/337/286 285/351/285 309/352/309
f 301/338/301 300/333/300 323/353/323 324/354/324
f 294/339/294 293/334/293 316/355/316 317/356/317
f 378/357/378 308/335/308 331/350/331
f 287/341/287 286/337/286 309/352/309 310/358/310
f 302/342/302 301/338/301 324/354/324 325/359/325
f 295/343/295 294/339/294 317/356/317 318/360/318
f 288/344/288 287/341/287 310/358/310 311/361/311
f 303/345/303 302/342/302 325/359/325 326/362/326
f 296/346/296 295/343/295 318/360/318 319/363/319
f 289/347/289 288/344/288 311/361/311 312/364/312
f 304/348/304 303/345/303 326/362/326 327/365/327
f 297/324/297 296/346/296 319/363/319 320/366/320
f 290/326/290 289/347/289 312/364/312 313/367/313
f 305/328/305 304/348/304 327/365/327 328/368/328
f 298/325/298 297/324/297 320/366/320 321/369/321
f 291/327/291 290/326/290 313/367/313 314/370/314
f 306/329/306 305/328/305 328/368/328 329/371/329
f 299/330/299 298/325/298 321/369/321 322/372/322
f 292/331/292 291/327/291 314/370/314 315/373/315
f 307/332/307 306/329/306 329/371/329 330/349/330
f 300/333/300 299/330/299 322/372/322 323/353/323
f 293/334/293 292/331/292 315/373/315 316/355/316
f 319/363/319 318/360/318 341/374/341 342/375/342
f 312/364/312 311/361/311 334/376/334 335/377/335
f 327/365/327 326/362/326 349/378/349 350/379/350
f 320/366/320 319/363/319 342/375/342 343/380/343
f 313/367/313 312/364/312 335/377/335 336/381/336
f 328/368/328 327/365/327 350/379/350 351/382/351
f 321/369/321 320/366/320 343/380/343 344/383/344
f 314/370/314 313/367/313 336/381/336 337/384/337
f 329/371/329 328/368/328 351/382/351 352/385/352
f 322/372/322 321/369/321 344/383/344 345/386/345
f 315/373/315 314/370/314 337/384/337 338/387/338
f 330/349/330 329/371/329 352/385/352 353/388/353
f 323/353/323 322/372/322 345/386/345 346/389/346
f 316/355/316 315/373/315 338/387/338 339/390/339
f 331/350/331 330/349/330 353/388/353 354/391/354
f 309/352/309 285/392/285 332/393/332
f 324/354/324 323/353/323 346/389/346 347/394/347
f 317/356/317 316/355/316 339/390/339 340/395/340
f 378/396/378 331/350/331 354/391/354
f 310/358/310 309/352/309 332/393/332 333/397/333
f 325/359/325 324/354/324 347/394/347 348/398/348
f 318/360/318 317/356/317 340/395/340 341/374/341
f 311/361/311 310/358/310 333/397/333 334/376/334
f 326/362/326 325/359/325 348/398/348 349/378/349
f 345/386/345 344/383/344 367/399/367 368/400/368
f 338/387/338 337/384/337 360/401/360 361/402/361
f 353/388/353 352/385/352 375/403/375 376/404/376
f 346/389/346 345/386/345 368/400/368 369/405/369
f 339/390/339 338/387/338 361/402/361 362/406/362
f 354/391/354 353/388/353 376/404/376 377/407/377
f 332/393/332 285/408/285 355/409/355
f 347/394/347 346/389/346 369/405/369 370/410/370
f 340/395/340 339/390/339 362/406/362 363/411/363
f 378/412/378 354/391/354 377/407/377
f 333/397/333 332/393/332 355/409/355 356/413/356
f 348/398/348 347/394/347 370/410/370 371/414/371
f 341/374/341 340/395/340 363/411/363 364/415/364
f 334/376/334 333/397/333 356/413/356 357/416/357
f 349/378/349 348/398/348 371/414/371 372/417/372
f 342/375/342 341/374/341 364/415/364 365/418/365
f 335/377/335 334/376/334 357/416/357 358/419/358
f 350/379/350 349/378/349 372/417/372 373/420/373
f 343/380/343 342/375/342 365/418/365 366/421/366
f 336/381/336 335/377/335 358/419/358 359/422/359
f 351/382/351 350/379/350 373/420/373 374/423/374
f 344/383/344 343/380/343 366/421/366 367/399/367
f 337/384/337 336/381/336 359/422/359 360/401/360
f 352/385/352 351/382/351 374/423/374 375/403/375
f 378/424/378 377/407/377 401/425/401
f 356/413/356 355/409/355 379/426/379 380/427/380
f 371/414/371 370/410/370 394/428/394 395/429/395
f 364/415/364 363/411/363 387/430/387 388/431/388
f 357/416/357 356/413/356 380/427/380 381/432/381
f 372/417/372 371/414/371 395/429/395 396/433/396
f 365/418/365 364/415/364 388/431/388 389/434/389
f 358/419/358 357/416/357 381/432/381 382/435/382
f 373/420/373 372/417/372 396/433/396 397/436/397
f 366/421/366 365/418/365 389/434/389 390/437/390
f 359/422/359 358/419/358 382/435/382 383/438/383
f 374/423/374 373/420/373 397/436/397 398/439/398
f 367/399/367 366/421/366 390/437/390 391/440/391
f 360/401/360 359/422/359 383/438/383 384/441/384
f 375/403/375 374/423/374 398/439/398 399/442/399
f 368/400/368 367/399/367 391/440/391 392/443/392
f 361/402/361 360/401/360 384/441/384 385/444/385
f 376/404/376 375/403/375 399/442/399 400/445/400
f 369/405/369 368/400/368 392/443/392 393/446/393
f 362/406/362 361/402/361 385/444/385 386/447/386
f 377/407/377 376/404/376 400/445/400 401/425/401
f 355/409/355 285/448/285 379/426/379
f 370/410/370 369/405/369 393/446/393 394/428/394
f 363/411/363 362/406/362 386/447/386 387/430/387
f 390/437/390 389/434/389 412/449/412 413/450/413
f 383/438/383 382/435/382 405/451/405 406/452/406
f 398/439/398 397/436/397 420/453/420 421/454/421
f 391/440/391 390/437/390 413/450/413 414/455/414
f 384/441/384 383/438/383 406/452/406 407/456/407
f 399/442/399 398/439/398 421/454/421 422/457/422
f 392/443/392 391/440/391 414/455/414 415/458/415
f 385/444/385 384/441/384 407/456/407 408/459/408
f 400/445/400 399/442/399 422/457/422 423/460/423
f 393/446/393 392/443/392 415/458/415 416/461/416
f 386/447/386 385/444/385 408/459/408 409/462/409
f 401/425/401 400/445/400 423/460/423 424/463/424
f 379/426/379 285/464/285 402/465/402
f 394/428/394 393/446/393 416/461/416 417/466/417
f 387/430/387 386/447/386 409/462/409 410/467/410
f 378/468/378 401/425/401 424/463/424
f 380/427/380 379/426/379 402/465/402 403/469/403
f 395/429/395 394/428/394 417/466/417 418/470/418
f 388/431/388 387/430/387 410/467/410 411/471/411
f 381/432/381 380/427/380 403/469/403 404/472/404
f 396/433/396 395/429/395 418/470/418 419/473/419
f 389/434/389 388/431/388 411/471/411 412/449/412
f 382/435/382 381/432/381 404/472/404 405/451/405
f 397/436/397 396/433/396 419/473/419 420/453/420
f 416/474/416 415/475/415 438/476/438 439/477/439
f 409/478/409 408/479/408 431/480/431 432/481/432
f 424/482/424 423/483/423 446/484/446 447/485/447
f 402/486/402 285/487/285 425/488/425
f 417/489/417 416/474/416 439/477/439 440/490/440
f 410/491/410 409/478/409 432/481/432 433/492/433
f 378/493/378 424/482/424 447/485/447
f 403/494/403 402/486/402 425/488/425 426/495/426
f 418/496/418 417/489/417 440/490/440 441/497/441
f 411/498/411 410/491/410 433/492/433 434/499/434
f 404/500/404 403/494/403 426/495/426 427/501/427
f 419/502/419 418/496/418 441/497/441 442/503/442
f 412/504/412 411/498/411 434/499/434 435/505/435
f 405/506/405 404/500/404 427/501/427 428/507/428
f 420/508/420 419/502/419 442/503/442 443/509/443
f 413/510/413 412/504/412 435/505/435 436/511/436
f 406/512/406 405/506/405 428/507/428 429/513/429
f 421/514/421 420/508/420 443/509/443 444/515/444
f 414/516/414 413/510/413 436/511/436 437/517/437
f 407/518/407 406/512/406 429/513/429 430/519/430
f 422/520/422 421/514/421 444/515/444 445/521/445
f 415/475/415 414/516/414 437/517/437 438/476/438
f 408/479/408 407/518/407 430/519/430 431/480/431
f 423/483/423 422/520/422 445/521/445 446/484/446
f 427/501/427 426/495/426 449/522/449 450/523/450
f 442/503/442 441/497/441 464/524/464 465/525/465
f 435/505/435 434/499/434 457/526/457 458/527/458
f 428/507/428 427/501/427 450/523/450 451/528/451
f 443/509/443 442/503/442 465/525/465 466/529/466
f 436/511/436 435/505/435 458/527/458 459/530/459
f 429/513/429 428/507/428 451/528/451 452/531/452
f 444/515/444 443/509/443 466/529/466 467/532/467
f 437/517/437 436/511/436 459/530/459 460/533/460
f 430/519/430 429/513/429 452/531/452 453/534/453
f 445/521/445 444/515/444 467/532/467 468/535/468
f 438/476/438 437/517/437 460/533/460 461/536/461
f 431/480/431 430/519/430 453/534/453 454/537/454
f 446/484/446 445/521/445 468/535/468 469/538/469
f 439/477/439 438/476/438 461/536/461 462/539/462
f 432/481/432 431/480/431 454/537/454 455/540/455
f 447/485/447 446/484/446 469/538/469 470/541/470
f 425/488/425 285/542/285 448/543/448
f 440/490/440 439/477/439 462/539/462 463/544/463
f 433/492/433 432/481/432 455/540/455 456/545/456
f 378/546/378 447/485/447 470/541/470
f 426/495/426 425/488/425 448/543/448 449/522/449
f 441/497/441 440/490/440 463/544/463 464/524/464
f 434/499/434 433/492/433 456/545/456 457/526/457
f 460/533/460 459/530/459 482/547/482 483/548/483
f 453/534/453 452/531/452 475/549/475 476/550/476
f 468/535/468 467/532/467 490/551/490 491/552/491
f 461/536/461 460/533/460 483/548/483 484/553/484
f 454/537/454 453/534/453 476/550/476 477/554/477
f 469/538/469 468/535/468 491/552/491 492/555/492
f 462/539/462 461/536/461 484/553/484 485/556/485
f 455/540/455 454/537/454 477/554/477 478/557/478
f 470/541/470 469/538/469 492/555/492 493/558/493
f 448/543/448 285/559/285 471/560/471
f 463/544/463 462/539/462 485/556/485 486/561/486
f 456/545/456 455/540/455 478/557/478 479/562/479
f 378/563/378 470/541/470 493/558/493
f 449/522/449 448/543/448 471/560/471 472/564/472
f 464/524/464 463/544/463 486/561/486 487/565/487
f 457/526/457 456/545/456 479/562/479 480/566/480
f 450/523/450 449/522/449 472/564/472 473/567/473
f 465/525/465 464/524/464 487/565/487 488/568/488
f 458/527/458 457/526/457 480/566/480 481/569/481
f 451/528/451 450/523/450 473/567/473 474/570/474
f 466/529/466 465/525/465 488/568/488 489/571/489
f 459/530/459 458/527/458 481/569/481 482/547/482
f 452/531/452 451/528/451 474/570/474 475/549/475
f 467/532/467 466/529/466 489/571/489 490/551/490
f 471/560/471 285/572/285 494/573/494
f 486/561/486 485/556/485 508/574/508 509/575/509
f 479/562/479 478/557/478 501/576/501 502/577/502
f 378/578/378 493/558/493 516/579/516
f 472/564/472 471/560/471 494/573/494 495/580/495
f 487/565/487 486/561/486 509/575/509 510/581/510
f 480/566/480 479/562/479 502/577/502 503/582/503
f 473/567/473 472/564/472 495/580/495 496/583/496
f 488/568/488 487/565/487 510/581/510 511/584/511
f 481/569/481 480/566/480 503/582/503 504/585/504
f 474/570/474 473/567/473 496/583/496 497/586/497
f 489/571/489 488/568/488 511/584/511 512/587/512
f 482/547/482 481/569/481 504/585/504 505/588/505
f 475/549/475 474/570/474 497/586/497 498/589/498
f 490/551/490 489/571/489 512/587/512 513/590/513
f 483/548/483 482/547/482 505/588/505 506/591/506
f 476/550/476 475/549/475 498/589/498 499/592/499
f 491/552/491 490/551/490 513/590/513 514/593/514
f 484/553/484 483/548/483 506/591/506 507/594/507
f 477/554/477 476/550/476 499/592/499 500/595/500
f 492/555/492 491/552/491 514/593/514 515/596/515
f 485/556/485 484/553/484 507/594/507 508/574/508
f 478/557/478 477/554/477 500/595/500 501/576/501
f 493/558/493 492/555/492 515/596/515 516/579/516
f 497/586/497 496/583/496 519/597/519 520/598/520
f 512/587/512 511/584/511 534/599/534 535/600/535
f 505/588/505 504/585/504 527/601/527 528/602/528
f 498/589/498 497/586/497 520/598/520 521/603/521
f 513/590/513 512/587/512 535/600/535 536/604/536
f 506/591/506 505/588/505 528/602/528 529/605/529
f 499/592/499 498/589/498 521/603/521 522/606/522
f 514/593/514 513/590/513 536/604/536 537/607/537
f 507/594/507 506/591/506 529/605/529 530/608/530
f 500/595/500 499/592/499 522/606/522 523/609/523
f 515/596/515 514/593/514 537/607/537 538/610/538
f 508/574/508 507/594/507 530/608/530 531/611/531
f 501/576/501 500/595/500 523/609/523 524/612/524
f 516/579/516 515/596/515 538/610/538 539/613/539
f 494/573/494 285/614/285 517/615/517
f 509/575/509 508/574/508 531/611/531 532/616/532
f 502/577/502 501/576/501 524/612/524 525/617/525
f 378/618/378 516/579/516 539/613/539
f 495/580/495 494/573/494 517/615/517 518/619/518
f 510/581/510 509/575/509 532/616/532 533/620/533
f 503/582/503 502/577/502 525/617/525 526/621/526
f 496/583/496 495/580/495 518/619/518 519/597/519
f 511/584/511 510/581/510 533/620/533 534/599/534
f 504/585/504 503/582/503 526/621/526 527/601/527
f 530/608/530 529/605/529 548/10/548 5/9/5
f 523/609/523 522/606/522 545/1/545 546/13/546
f 538/610/538 537/607/537 552/5/552 553/15/553
f 531/611/531 530/608/530 5/9/5 6/17/6
f 524/612/524 523/609/523 546/13/546 1/19/1
f 539/613/539 538/610/538 553/15/553 554/21/554
f 517/615/517 285/622/285 540/23/540
f 532/616/532 531/611/531 6/17/6 7/26/7
f 525/617/525 524/612/524 1/19/1 2/28/2
f 378/623/378 539/613/539 554/21/554
f 518/619/518 517/615/517 540/23/540 541/31/541
f 533/620/533 532/616/532 7/26/7 549/33/549
f 526/621/526 525/617/525 2/28/2 3/35/3
f 519/597/519 518/619/518 541/31/541 542/37/542
f 534/599/534 533/620/533 549/33/549 8/39/8
f 527/601/527 526/621/526 3/35/3 547/41/547
f 520/598/520 519/597/519 542/37/542 543/43/543
f 535/600/535 534/599/534 8/39/8 550/45/550
f 528/602/528 527/601/527 547/41/547 4/47/4
f 521/603/521 520/598/520 543/43/543 544/2/544
f 536/604/536 535/600/535 550/45/550 551/6/551
f 529/605/529 528/602/528 4/47/4 548/10/548
f 522/606/522 521/603/521 544/2/544 545/1/545
f 537/607/537 536/604/536 551/6/551 552/5/552
